solid "box"
   facet normal 2.22713673033497E-12 4.72435329627726E-16 1
      outer loop
         vertex -1.55810947382187 -0.680442808857793 0.639283344737994
         vertex -1.55810947382187 -1.15044280885779 0.639283344737994
         vertex 0.429800526178127 -0.680442808857793 0.639283344733566
      endloop
   endfacet
   facet normal 2.22713673033497E-12 4.72435329627726E-16 1
      outer loop
         vertex 0.429800526178127 -0.680442808857793 0.639283344733566
         vertex -1.55810947382187 -1.15044280885779 0.639283344737994
         vertex 0.429800526178127 -1.15044280885779 0.639283344733567
      endloop
   endfacet
   facet normal 1 -1.05209453418154E-27 -2.2269598994863E-12
      outer loop
         vertex 0.429800526178127 -1.15044280885779 0.639283344733567
         vertex 0.429800526177299 -1.15044280885779 0.267723344733567
         vertex 0.429800526178127 -0.680442808857793 0.639283344733566
      endloop
   endfacet
   facet normal 1 -2.36217664813892E-16 -2.22666109901676E-12
      outer loop
         vertex 0.429800526178127 -0.680442808857793 0.639283344733566
         vertex 0.429800526177299 -1.15044280885779 0.267723344733567
         vertex 0.429800526177299 -0.680442808857793 0.267723344733567
      endloop
   endfacet
   facet normal -2.22713673033497E-12 0 -1
      outer loop
         vertex -1.5581094738227 -1.15044280885779 0.267723344737994
         vertex -1.5581094738227 -0.680442808857793 0.267723344737994
         vertex 0.429800526177299 -1.15044280885779 0.267723344733567
      endloop
   endfacet
   facet normal -2.22713673033497E-12 5.2608903766091E-28 -1
      outer loop
         vertex 0.429800526177299 -1.15044280885779 0.267723344733567
         vertex -1.5581094738227 -0.680442808857793 0.267723344737994
         vertex 0.429800526177299 -0.680442808857793 0.267723344733567
      endloop
   endfacet
   facet normal -1 0 2.22725869995584E-12
      outer loop
         vertex -1.5581094738227 -1.15044280885779 0.267723344737994
         vertex -1.55810947382187 -1.15044280885779 0.639283344737994
         vertex -1.5581094738227 -0.680442808857793 0.267723344737994
      endloop
   endfacet
   facet normal -1 8.67310991280206E-28 2.22725869995584E-12
      outer loop
         vertex -1.5581094738227 -0.680442808857793 0.267723344737994
         vertex -1.55810947382187 -1.15044280885779 0.639283344737994
         vertex -1.55810947382187 -0.680442808857793 0.639283344737994
      endloop
   endfacet
   facet normal 0 -1 0
      outer loop
         vertex -1.55810947382187 -1.15044280885779 0.639283344737994
         vertex -1.5581094738227 -1.15044280885779 0.267723344737994
         vertex 0.429800526178127 -1.15044280885779 0.639283344733567
      endloop
   endfacet
   facet normal 0 -1 0
      outer loop
         vertex 0.429800526178127 -1.15044280885779 0.639283344733567
         vertex -1.5581094738227 -1.15044280885779 0.267723344737994
         vertex 0.429800526177299 -1.15044280885779 0.267723344733567
      endloop
   endfacet
   facet normal 0 1 0
      outer loop
         vertex -1.5581094738227 -0.680442808857793 0.267723344737994
         vertex -1.55810947382187 -0.680442808857793 0.639283344737994
         vertex 0.429800526177299 -0.680442808857793 0.267723344733567
      endloop
   endfacet
   facet normal 0 1 0
      outer loop
         vertex 0.429800526177299 -0.680442808857793 0.267723344733567
         vertex -1.55810947382187 -0.680442808857793 0.639283344737994
         vertex 0.429800526178127 -0.680442808857793 0.639283344733566
      endloop
   endfacet
endsolid
