solid "inner_volume_big"
   facet normal 1.55354230081211E-13 0.997564050259824 0.0697564737441286
      outer loop
         vertex -0.75258947382223 -0.715222898530941 0.479204846371741
         vertex -0.563979473822288 -0.713392808857793 0.45303334473578
         vertex -0.752589473822288 -0.713392808857793 0.4530333447362
      endloop
   endfacet
   facet normal -1.55354476380986E-13 0.997564050259824 -0.0697564737441286
      outer loop
         vertex -0.752589473822288 -0.713392808857793 0.4530333447362
         vertex -0.563979473822288 -0.713392808857793 0.45303334473578
         vertex -0.563979473822347 -0.715222898530941 0.42686184310024
      endloop
   endfacet
   facet normal -1.55354230081211E-13 0.997564050259824 -0.0697564737441286
      outer loop
         vertex -0.752589473822288 -0.713392808857793 0.4530333447362
         vertex -0.563979473822347 -0.715222898530941 0.42686184310024
         vertex -0.752589473822347 -0.715222898530941 0.42686184310066
      endloop
   endfacet
   facet normal -4.63039630973271E-13 0.978147600733806 -0.207911690817757
      outer loop
         vertex -0.752589473822347 -0.715222898530941 0.42686184310066
         vertex -0.563979473822347 -0.715222898530941 0.42686184310024
         vertex -0.563979473822404 -0.720677546936593 0.401199739974393
      endloop
   endfacet
   facet normal -4.63040372946363E-13 0.978147600733806 -0.207911690817757
      outer loop
         vertex -0.752589473822347 -0.715222898530941 0.42686184310066
         vertex -0.563979473822404 -0.720677546936593 0.401199739974393
         vertex -0.752589473822404 -0.720677546936593 0.401199739974813
      endloop
   endfacet
   facet normal -7.61712245848454E-13 0.939692620785908 -0.342020143325669
      outer loop
         vertex -0.752589473822404 -0.720677546936593 0.401199739974813
         vertex -0.563979473822404 -0.720677546936593 0.401199739974393
         vertex -0.563979473822459 -0.729650585548102 0.376546519005376
      endloop
   endfacet
   facet normal -7.61711602006366E-13 0.939692620785908 -0.342020143325669
      outer loop
         vertex -0.752589473822404 -0.720677546936593 0.401199739974813
         vertex -0.563979473822459 -0.729650585548102 0.376546519005376
         vertex -0.752589473822459 -0.729650585548102 0.376546519005796
      endloop
   endfacet
   facet normal -1.04555899829304E-12 0.882947592858925 -0.469471562785895
      outer loop
         vertex -0.752589473822459 -0.729650585548102 0.376546519005796
         vertex -0.563979473822459 -0.729650585548102 0.376546519005376
         vertex -0.56397947382251 -0.741967364375578 0.353382027096726
      endloop
   endfacet
   facet normal -1.0455601929034E-12 0.882947592858925 -0.469471562785895
      outer loop
         vertex -0.752589473822459 -0.729650585548102 0.376546519005796
         vertex -0.56397947382251 -0.741967364375578 0.353382027096726
         vertex -0.75258947382251 -0.741967364375578 0.353382027097146
      endloop
   endfacet
   facet normal -1.30905513414156E-12 0.809016994374948 -0.587785252292472
      outer loop
         vertex -0.75258947382251 -0.741967364375578 0.353382027097146
         vertex -0.56397947382251 -0.741967364375578 0.353382027096726
         vertex -0.563979473822558 -0.75738815132927 0.332157134734226
      endloop
   endfacet
   facet normal -1.309059153063E-12 0.809016994374948 -0.587785252292472
      outer loop
         vertex -0.75258947382251 -0.741967364375578 0.353382027097146
         vertex -0.563979473822558 -0.75738815132927 0.332157134734226
         vertex -0.752589473822557 -0.75738815132927 0.332157134734646
      endloop
   endfacet
   facet normal -1.54707200083217E-12 0.719339800338652 -0.694658370458996
      outer loop
         vertex -0.752589473822557 -0.75738815132927 0.332157134734646
         vertex -0.563979473822558 -0.75738815132927 0.332157134734226
         vertex -0.563979473822599 -0.77561279833201 0.313284960304756
      endloop
   endfacet
   facet normal -1.54728403617753E-12 0.719339800338651 -0.694658370458997
      outer loop
         vertex -0.752589473822557 -0.75738815132927 0.332157134734646
         vertex -0.563979473822599 -0.77561279833201 0.313284960304756
         vertex -0.752589473822599 -0.77561279833201 0.313284960305176
      endloop
   endfacet
   facet normal -1.75520879584722E-12 0.615661475325657 -0.788010753606723
      outer loop
         vertex -0.752589473822599 -0.77561279833201 0.313284960305176
         vertex -0.563979473822599 -0.77561279833201 0.313284960304756
         vertex -0.563979473822635 -0.79628658336012 0.297132829216805
      endloop
   endfacet
   facet normal -1.75520631976597E-12 0.615661475325657 -0.788010753606723
      outer loop
         vertex -0.752589473822599 -0.77561279833201 0.313284960305176
         vertex -0.563979473822635 -0.79628658336012 0.297132829216805
         vertex -0.752589473822635 -0.79628658336012 0.297132829217225
      endloop
   endfacet
   facet normal -1.92897799832337E-12 0.499999999999999 -0.866025403784439
      outer loop
         vertex -0.752589473822635 -0.79628658336012 0.297132829217225
         vertex -0.563979473822635 -0.79628658336012 0.297132829216805
         vertex -0.563979473822665 -0.819007114704107 0.284015124329222
      endloop
   endfacet
   facet normal -1.92846575993411E-12 0.500000000000002 -0.866025403784438
      outer loop
         vertex -0.752589473822635 -0.79628658336012 0.297132829217225
         vertex -0.563979473822665 -0.819007114704107 0.284015124329222
         vertex -0.752589473822665 -0.819007114704107 0.284015124329642
      endloop
   endfacet
   facet normal -2.06465606608612E-12 0.374606593415914 -0.927183854566787
      outer loop
         vertex -0.752589473822665 -0.819007114704107 0.284015124329642
         vertex -0.563979473822665 -0.819007114704107 0.284015124329222
         vertex -0.563979473822687 -0.843332163065585 0.274187166846476
      endloop
   endfacet
   facet normal -2.06493153397486E-12 0.374606593415912 -0.927183854566788
      outer loop
         vertex -0.752589473822665 -0.819007114704107 0.284015124329642
         vertex -0.563979473822687 -0.843332163065585 0.274187166846476
         vertex -0.752589473822687 -0.843332163065585 0.274187166846897
      endloop
   endfacet
   facet normal -2.160943298872E-12 0.241921895599668 -0.970295726275996
      outer loop
         vertex -0.752589473822687 -0.843332163065585 0.274187166846897
         vertex -0.563979473822687 -0.843332163065585 0.274187166846476
         vertex -0.563979473822701 -0.868788269047527 0.267840246781834
      endloop
   endfacet
   facet normal -2.16122938279421E-12 0.241921895599666 -0.970295726275997
      outer loop
         vertex -0.752589473822687 -0.843332163065585 0.274187166846897
         vertex -0.563979473822701 -0.868788269047527 0.267840246781834
         vertex -0.752589473822701 -0.868788269047527 0.267840246782254
      endloop
   endfacet
   facet normal -2.21519004711987E-12 0.104528463267651 -0.994521895368274
      outer loop
         vertex -0.752589473822701 -0.868788269047527 0.267840246782254
         vertex -0.563979473822701 -0.868788269047527 0.267840246781834
         vertex -0.563979473822707 -0.894879958502888 0.265097899714839
      endloop
   endfacet
   facet normal -2.21460402664494E-12 0.104528463267656 -0.994521895368273
      outer loop
         vertex -0.752589473822701 -0.868788269047527 0.267840246782254
         vertex -0.563979473822707 -0.894879958502888 0.265097899714839
         vertex -0.752589473822707 -0.894879958502888 0.265097899715259
      endloop
   endfacet
   facet normal -2.2254467905504E-12 -0.0348994967024999 -0.999390827019096
      outer loop
         vertex -0.752589473822707 -0.894879958502888 0.265097899715259
         vertex -0.563979473822707 -0.894879958502888 0.265097899714839
         vertex -0.563979473822705 -0.921099386375276 0.266013502311776
      endloop
   endfacet
   facet normal -2.22544643588877E-12 -0.0348994967024999 -0.999390827019096
      outer loop
         vertex -0.752589473822707 -0.894879958502888 0.265097899715259
         vertex -0.563979473822705 -0.921099386375276 0.266013502311776
         vertex -0.752589473822705 -0.921099386375276 0.266013502312196
      endloop
   endfacet
   facet normal -2.19297315324297E-12 -0.17364817766693 -0.984807753012208
      outer loop
         vertex -0.752589473822705 -0.921099386375276 0.266013502312196
         vertex -0.563979473822705 -0.921099386375276 0.266013502311776
         vertex -0.563979473822695 -0.946936221325311 0.270569233409579
      endloop
   endfacet
   facet normal -2.19326293341397E-12 -0.173648177666932 -0.984807753012208
      outer loop
         vertex -0.752589473822705 -0.921099386375276 0.266013502312196
         vertex -0.563979473822695 -0.946936221325311 0.270569233409579
         vertex -0.752589473822695 -0.946936221325311 0.270569233409999
      endloop
   endfacet
   facet normal -2.1180957001886E-12 -0.309016994374948 -0.951056516295153
      outer loop
         vertex -0.752589473822695 -0.946936221325311 0.270569233409999
         vertex -0.563979473822695 -0.946936221325311 0.270569233409579
         vertex -0.563979473822677 -0.971887578749656 0.278676420884496
      endloop
   endfacet
   facet normal -2.11809802547888E-12 -0.309016994374948 -0.951056516295153
      outer loop
         vertex -0.752589473822695 -0.946936221325311 0.270569233409999
         vertex -0.563979473822677 -0.971887578749656 0.278676420884496
         vertex -0.752589473822677 -0.971887578749656 0.278676420884916
      endloop
   endfacet
   facet normal -2.00170207785062E-12 -0.438371146789077 -0.898794046299167
      outer loop
         vertex -0.752589473822677 -0.971887578749656 0.278676420884916
         vertex -0.563979473822677 -0.971887578749656 0.278676420884496
         vertex -0.563979473822651 -0.995467808857794 0.290177267554116
      endloop
   endfacet
   facet normal -2.00170251981549E-12 -0.438371146789077 -0.898794046299167
      outer loop
         vertex -0.752589473822677 -0.971887578749656 0.278676420884916
         vertex -0.563979473822651 -0.995467808857794 0.290177267554116
         vertex -0.752589473822651 -0.995467808857794 0.290177267554536
      endloop
   endfacet
   facet normal -1.84634760146964E-12 -0.559192903470749 -0.82903757255504
      outer loop
         vertex -0.752589473822651 -0.995467808857794 0.290177267554536
         vertex -0.563979473822651 -0.995467808857794 0.290177267554116
         vertex -0.563979473822618 -1.01721794929278 0.304847922520036
      endloop
   endfacet
   facet normal -1.84610316295756E-12 -0.559192903470747 -0.829037572555041
      outer loop
         vertex -0.752589473822651 -0.995467808857794 0.290177267554536
         vertex -0.563979473822618 -1.01721794929278 0.304847922520036
         vertex -0.752589473822618 -1.01721794929278 0.304847922520456
      endloop
   endfacet
   facet normal -1.65483734897359E-12 -0.669130606358858 -0.743144825477394
      outer loop
         vertex -0.752589473822618 -1.01721794929278 0.304847922520456
         vertex -0.563979473822618 -1.01721794929278 0.304847922520036
         vertex -0.563979473822579 -1.03671465831148 0.322402838170966
      endloop
   endfacet
   facet normal -1.65505217483918E-12 -0.669130606358859 -0.743144825477393
      outer loop
         vertex -0.752589473822618 -1.01721794929278 0.304847922520456
         vertex -0.563979473822579 -1.03671465831148 0.322402838170966
         vertex -0.752589473822579 -1.03671465831148 0.322402838171386
      endloop
   endfacet
   facet normal -1.43155075317211E-12 -0.766044443118975 -0.642787609686543
      outer loop
         vertex -0.752589473822579 -1.03671465831148 0.322402838171386
         vertex -0.563979473822579 -1.03671465831148 0.322402838170966
         vertex -0.563979473822534 -1.05357845465 0.342500328042181
      endloop
   endfacet
   facet normal -1.43155133140761E-12 -0.766044443118975 -0.642787609686543
      outer loop
         vertex -0.752589473822579 -1.03671465831148 0.322402838171386
         vertex -0.563979473822534 -1.05357845465 0.342500328042181
         vertex -0.752589473822534 -1.05357845465 0.342500328042601
      endloop
   endfacet
   facet normal -1.18018193008324E-12 -0.848048096156427 -0.529919264233204
      outer loop
         vertex -0.752589473822534 -1.05357845465 0.342500328042601
         vertex -0.563979473822534 -1.05357845465 0.342500328042181
         vertex -0.563979473822485 -1.06748110369491 0.364749217353893
      endloop
   endfacet
   facet normal -1.18002660887708E-12 -0.848048096156426 -0.529919264233205
      outer loop
         vertex -0.752589473822534 -1.05357845465 0.342500328042601
         vertex -0.563979473822485 -1.06748110369491 0.364749217353893
         vertex -0.752589473822485 -1.06748110369491 0.364749217354313
      endloop
   endfacet
   facet normal -9.05722498606622E-13 -0.913545457642603 -0.406736643075796
      outer loop
         vertex -0.752589473822485 -1.06748110369491 0.364749217354313
         vertex -0.563979473822485 -1.06748110369491 0.364749217353893
         vertex -0.563979473822432 -1.07815200619658 0.388716456783388
      endloop
   endfacet
   facet normal -9.05955700582016E-13 -0.913545457642603 -0.406736643075795
      outer loop
         vertex -0.752589473822485 -1.06748110369491 0.364749217354313
         vertex -0.563979473822432 -1.07815200619658 0.388716456783388
         vertex -0.752589473822431 -1.07815200619658 0.388716456783808
      endloop
   endfacet
   facet normal -6.13952422831434E-13 -0.961261695938318 -0.275637355817002
      outer loop
         vertex -0.752589473822431 -1.07815200619658 0.388716456783808
         vertex -0.563979473822432 -1.07815200619658 0.388716456783388
         vertex -0.563979473822375 -1.08538346517579 0.4139355512775
      endloop
   endfacet
   facet normal -6.13868658909997E-13 -0.961261695938318 -0.275637355817003
      outer loop
         vertex -0.752589473822431 -1.07815200619658 0.388716456783808
         vertex -0.563979473822375 -1.08538346517579 0.4139355512775
         vertex -0.752589473822375 -1.08538346517579 0.413935551277921
      endloop
   endfacet
   facet normal -3.0995208136921E-13 -0.99026806874157 -0.139173100960068
      outer loop
         vertex -0.752589473822375 -1.08538346517579 0.413935551277921
         vertex -0.563979473822375 -1.08538346517579 0.4139355512775
         vertex -0.563979473822318 -1.08903472850915 0.439915639848197
      endloop
   endfacet
   facet normal -3.09952538482272E-13 -0.99026806874157 -0.139173100960068
      outer loop
         vertex -0.752589473822375 -1.08538346517579 0.413935551277921
         vertex -0.563979473822318 -1.08903472850915 0.439915639848197
         vertex -0.752589473822317 -1.08903472850915 0.439915639848617
      endloop
   endfacet
   facet normal 0 -1 0
      outer loop
         vertex -0.752589473822317 -1.08903472850915 0.439915639848617
         vertex -0.563979473822318 -1.08903472850915 0.439915639848197
         vertex -0.563979473822259 -1.08903472850915 0.466151049623363
      endloop
   endfacet
   facet normal 0 -1 0
      outer loop
         vertex -0.752589473822317 -1.08903472850915 0.439915639848617
         vertex -0.563979473822259 -1.08903472850915 0.466151049623363
         vertex -0.752589473822259 -1.08903472850915 0.466151049623783
      endloop
   endfacet
   facet normal 3.0995208136921E-13 -0.99026806874157 0.139173100960067
      outer loop
         vertex -0.752589473822259 -1.08903472850915 0.466151049623783
         vertex -0.563979473822259 -1.08903472850915 0.466151049623363
         vertex -0.563979473822201 -1.08538346517579 0.49213113819406
      endloop
   endfacet
   facet normal 3.09952538482272E-13 -0.99026806874157 0.139173100960067
      outer loop
         vertex -0.752589473822259 -1.08903472850915 0.466151049623783
         vertex -0.563979473822201 -1.08538346517579 0.49213113819406
         vertex -0.752589473822201 -1.08538346517579 0.49213113819448
      endloop
   endfacet
   facet normal 6.13871298039835E-13 -0.961261695938318 0.275637355817003
      outer loop
         vertex -0.752589473822201 -1.08538346517579 0.49213113819448
         vertex -0.563979473822201 -1.08538346517579 0.49213113819406
         vertex -0.563979473822145 -1.07815200619658 0.517350232688172
      endloop
   endfacet
   facet normal 6.13786493509982E-13 -0.961261695938318 0.275637355817004
      outer loop
         vertex -0.752589473822201 -1.08538346517579 0.49213113819448
         vertex -0.563979473822145 -1.07815200619658 0.517350232688172
         vertex -0.752589473822145 -1.07815200619658 0.517350232688592
      endloop
   endfacet
   facet normal 9.05722498606619E-13 -0.913545457642603 0.406736643075795
      outer loop
         vertex -0.752589473822145 -1.07815200619658 0.517350232688592
         vertex -0.563979473822145 -1.07815200619658 0.517350232688172
         vertex -0.563979473822092 -1.06748110369491 0.541317472117667
      endloop
   endfacet
   facet normal 9.05714682075301E-13 -0.913545457642603 0.406736643075795
      outer loop
         vertex -0.752589473822145 -1.07815200619658 0.517350232688592
         vertex -0.563979473822092 -1.06748110369491 0.541317472117667
         vertex -0.752589473822092 -1.06748110369491 0.541317472118087
      endloop
   endfacet
   facet normal 1.18002596577373E-12 -0.848048096156426 0.529919264233206
      outer loop
         vertex -0.752589473822092 -1.06748110369491 0.541317472118087
         vertex -0.563979473822092 -1.06748110369491 0.541317472117667
         vertex -0.563979473822042 -1.05357845465 0.56356636142938
      endloop
   endfacet
   facet normal 1.18034431509047E-12 -0.848048096156427 0.529919264233204
      outer loop
         vertex -0.752589473822092 -1.06748110369491 0.541317472118087
         vertex -0.563979473822042 -1.05357845465 0.56356636142938
         vertex -0.752589473822042 -1.05357845465 0.5635663614298
      endloop
   endfacet
   facet normal 1.43173993656754E-12 -0.766044443118975 0.642787609686543
      outer loop
         vertex -0.752589473822042 -1.05357845465 0.5635663614298
         vertex -0.563979473822042 -1.05357845465 0.56356636142938
         vertex -0.563979473821997 -1.03671465831148 0.583663851300595
      endloop
   endfacet
   facet normal 1.43173757298098E-12 -0.766044443118975 0.642787609686543
      outer loop
         vertex -0.752589473822042 -1.05357845465 0.5635663614298
         vertex -0.563979473821997 -1.03671465831148 0.583663851300595
         vertex -0.752589473821997 -1.03671465831148 0.583663851301015
      endloop
   endfacet
   facet normal 1.65527478945706E-12 -0.669130606358861 0.743144825477392
      outer loop
         vertex -0.752589473821997 -1.03671465831148 0.583663851301015
         vertex -0.563979473821997 -1.03671465831148 0.583663851300595
         vertex -0.563979473821958 -1.01721794929278 0.601218766951524
      endloop
   endfacet
   facet normal 1.65483306710581E-12 -0.669130606358858 0.743144825477394
      outer loop
         vertex -0.752589473821997 -1.03671465831148 0.583663851301015
         vertex -0.563979473821958 -1.01721794929278 0.601218766951524
         vertex -0.752589473821958 -1.01721794929278 0.601218766951944
      endloop
   endfacet
   facet normal 1.84610360152231E-12 -0.559192903470746 0.829037572555042
      outer loop
         vertex -0.752589473821958 -1.01721794929278 0.601218766951944
         vertex -0.563979473821958 -1.01721794929278 0.601218766951524
         vertex -0.563979473821926 -0.995467808857794 0.615889421917444
      endloop
   endfacet
   facet normal 1.84610316295757E-12 -0.559192903470746 0.829037572555042
      outer loop
         vertex -0.752589473821958 -1.01721794929278 0.601218766951944
         vertex -0.563979473821926 -0.995467808857794 0.615889421917444
         vertex -0.752589473821926 -0.995467808857794 0.615889421917864
      endloop
   endfacet
   facet normal 2.00143754737912E-12 -0.438371146789079 0.898794046299166
      outer loop
         vertex -0.752589473821926 -0.995467808857794 0.615889421917864
         vertex -0.563979473821926 -0.995467808857794 0.615889421917444
         vertex -0.5639794738219 -0.971887578749656 0.627390268587064
      endloop
   endfacet
   facet normal 2.00143959053544E-12 -0.438371146789079 0.898794046299166
      outer loop
         vertex -0.752589473821926 -0.995467808857794 0.615889421917864
         vertex -0.5639794738219 -0.971887578749656 0.627390268587064
         vertex -0.7525894738219 -0.971887578749656 0.627390268587484
      endloop
   endfacet
   facet normal 2.11781578797766E-12 -0.309016994374947 0.951056516295154
      outer loop
         vertex -0.7525894738219 -0.971887578749656 0.627390268587484
         vertex -0.5639794738219 -0.971887578749656 0.627390268587064
         vertex -0.563979473821882 -0.946936221325311 0.635497456061981
      endloop
   endfacet
   facet normal 2.11781318542548E-12 -0.309016994374947 0.951056516295154
      outer loop
         vertex -0.7525894738219 -0.971887578749656 0.627390268587484
         vertex -0.563979473821882 -0.946936221325311 0.635497456061981
         vertex -0.752589473821882 -0.946936221325311 0.635497456062401
      endloop
   endfacet
   facet normal 2.19297315324297E-12 -0.173648177666928 0.984807753012208
      outer loop
         vertex -0.752589473821882 -0.946936221325311 0.635497456062401
         vertex -0.563979473821882 -0.946936221325311 0.635497456061981
         vertex -0.563979473821872 -0.921099386375276 0.640053187159784
      endloop
   endfacet
   facet normal 2.1935532511607E-12 -0.173648177666932 0.984807753012208
      outer loop
         vertex -0.752589473821882 -0.946936221325311 0.635497456062401
         vertex -0.563979473821872 -0.921099386375276 0.640053187159784
         vertex -0.752589473821872 -0.921099386375276 0.640053187160204
      endloop
   endfacet
   facet normal 2.22603506620214E-12 -0.0348994967025001 0.999390827019096
      outer loop
         vertex -0.752589473821872 -0.921099386375276 0.640053187160204
         vertex -0.563979473821872 -0.921099386375276 0.640053187159784
         vertex -0.56397947382187 -0.894879958502888 0.640968789756721
      endloop
   endfacet
   facet normal 2.22603460321056E-12 -0.0348994967025001 0.999390827019096
      outer loop
         vertex -0.752589473821872 -0.921099386375276 0.640053187160204
         vertex -0.56397947382187 -0.894879958502888 0.640968789756721
         vertex -0.75258947382187 -0.894879958502888 0.640968789757141
      endloop
   endfacet
   facet normal 2.21519004711987E-12 0.104528463267651 0.994521895368274
      outer loop
         vertex -0.75258947382187 -0.894879958502888 0.640968789757141
         vertex -0.56397947382187 -0.894879958502888 0.640968789756721
         vertex -0.563979473821876 -0.868788269047527 0.638226442689726
      endloop
   endfacet
   facet normal 2.21460402664494E-12 0.104528463267656 0.994521895368273
      outer loop
         vertex -0.75258947382187 -0.894879958502888 0.640968789757141
         vertex -0.563979473821876 -0.868788269047527 0.638226442689726
         vertex -0.752589473821876 -0.868788269047527 0.638226442690146
      endloop
   endfacet
   facet normal 2.16065772423227E-12 0.241921895599668 0.970295726275996
      outer loop
         vertex -0.752589473821876 -0.868788269047527 0.638226442690146
         vertex -0.563979473821876 -0.868788269047527 0.638226442689726
         vertex -0.56397947382189 -0.843332163065585 0.631879522625084
      endloop
   endfacet
   facet normal 2.16122938279421E-12 0.241921895599664 0.970295726275997
      outer loop
         vertex -0.752589473821876 -0.868788269047527 0.638226442690146
         vertex -0.56397947382189 -0.843332163065585 0.631879522625084
         vertex -0.75258947382189 -0.843332163065585 0.631879522625504
      endloop
   endfacet
   facet normal 2.06520183824211E-12 0.374606593415914 0.927183854566787
      outer loop
         vertex -0.75258947382189 -0.843332163065585 0.631879522625504
         vertex -0.56397947382189 -0.843332163065585 0.631879522625084
         vertex -0.563979473821912 -0.819007114704107 0.622051565142338
      endloop
   endfacet
   facet normal 2.06519994094824E-12 0.374606593415914 0.927183854566787
      outer loop
         vertex -0.75258947382189 -0.843332163065585 0.631879522625504
         vertex -0.563979473821912 -0.819007114704107 0.622051565142338
         vertex -0.752589473821912 -0.819007114704107 0.622051565142759
      endloop
   endfacet
   facet normal 1.92897799832337E-12 0.5 0.866025403784439
      outer loop
         vertex -0.752589473821912 -0.819007114704107 0.622051565142759
         vertex -0.563979473821912 -0.819007114704107 0.622051565142338
         vertex -0.563979473821941 -0.796286583360119 0.608933860254756
      endloop
   endfacet
   facet normal 1.92896970772087E-12 0.5 0.866025403784439
      outer loop
         vertex -0.752589473821912 -0.819007114704107 0.622051565142759
         vertex -0.563979473821941 -0.796286583360119 0.608933860254756
         vertex -0.752589473821941 -0.796286583360119 0.608933860255176
      endloop
   endfacet
   facet normal 1.75520879584722E-12 0.615661475325656 0.788010753606724
      outer loop
         vertex -0.752589473821941 -0.796286583360119 0.608933860255176
         vertex -0.563979473821941 -0.796286583360119 0.608933860254756
         vertex -0.563979473821977 -0.77561279833201 0.592781729166804
      endloop
   endfacet
   facet normal 1.75474619352588E-12 0.615661475325659 0.788010753606721
      outer loop
         vertex -0.752589473821941 -0.796286583360119 0.608933860255176
         vertex -0.563979473821977 -0.77561279833201 0.592781729166804
         vertex -0.752589473821977 -0.77561279833201 0.592781729167224
      endloop
   endfacet
   facet normal 1.54686755098404E-12 0.719339800338652 0.694658370458996
      outer loop
         vertex -0.752589473821977 -0.77561279833201 0.592781729167224
         vertex -0.563979473821977 -0.77561279833201 0.592781729166804
         vertex -0.563979473822019 -0.75738815132927 0.573909554737334
      endloop
   endfacet
   facet normal 1.54727308079086E-12 0.71933980033865 0.694658370458998
      outer loop
         vertex -0.752589473821977 -0.77561279833201 0.592781729167224
         vertex -0.563979473822019 -0.75738815132927 0.573909554737334
         vertex -0.752589473822019 -0.75738815132927 0.573909554737754
      endloop
   endfacet
   facet normal 1.30922812940179E-12 0.809016994374948 0.587785252292472
      outer loop
         vertex -0.752589473822019 -0.75738815132927 0.573909554737754
         vertex -0.563979473822019 -0.75738815132927 0.573909554737334
         vertex -0.563979473822066 -0.741967364375578 0.552684662374834
      endloop
   endfacet
   facet normal 1.30922348386303E-12 0.809016994374948 0.587785252292472
      outer loop
         vertex -0.752589473822019 -0.75738815132927 0.573909554737754
         vertex -0.563979473822066 -0.741967364375578 0.552684662374834
         vertex -0.752589473822066 -0.741967364375578 0.552684662375254
      endloop
   endfacet
   facet normal 1.04569717180939E-12 0.882947592858926 0.469471562785893
      outer loop
         vertex -0.752589473822066 -0.741967364375578 0.552684662375254
         vertex -0.563979473822066 -0.741967364375578 0.552684662374834
         vertex -0.563979473822118 -0.729650585548102 0.529520170466184
      endloop
   endfacet
   facet normal 1.04570261293009E-12 0.882947592858926 0.469471562785893
      outer loop
         vertex -0.752589473822066 -0.741967364375578 0.552684662375254
         vertex -0.563979473822118 -0.729650585548102 0.529520170466184
         vertex -0.752589473822118 -0.729650585548102 0.529520170466604
      endloop
   endfacet
   facet normal 7.6181290823062E-13 0.939692620785908 0.342020143325669
      outer loop
         vertex -0.752589473822118 -0.729650585548102 0.529520170466604
         vertex -0.563979473822118 -0.729650585548102 0.529520170466184
         vertex -0.563979473822173 -0.720677546936593 0.504866949497167
      endloop
   endfacet
   facet normal 7.61810200486386E-13 0.939692620785908 0.342020143325669
      outer loop
         vertex -0.752589473822118 -0.729650585548102 0.529520170466604
         vertex -0.563979473822173 -0.720677546936593 0.504866949497167
         vertex -0.752589473822173 -0.720677546936593 0.504866949497587
      endloop
   endfacet
   facet normal 4.63100822942478E-13 0.978147600733806 0.207911690817758
      outer loop
         vertex -0.752589473822173 -0.720677546936593 0.504866949497587
         vertex -0.563979473822173 -0.720677546936593 0.504866949497167
         vertex -0.56397947382223 -0.715222898530941 0.47920484637132
      endloop
   endfacet
   facet normal 4.6303489525303E-13 0.978147600733806 0.207911690817757
      outer loop
         vertex -0.752589473822173 -0.720677546936593 0.504866949497587
         vertex -0.56397947382223 -0.715222898530941 0.47920484637132
         vertex -0.75258947382223 -0.715222898530941 0.479204846371741
      endloop
   endfacet
   facet normal 1.55354476380986E-13 0.997564050259824 0.0697564737441286
      outer loop
         vertex -0.75258947382223 -0.715222898530941 0.479204846371741
         vertex -0.56397947382223 -0.715222898530941 0.47920484637132
         vertex -0.563979473822288 -0.713392808857793 0.45303334473578
      endloop
   endfacet
   facet normal -1 0 2.2271060180081E-12
      outer loop
         vertex -0.752589473822288 -0.713392808857793 0.4530333447362
         vertex -0.752589473822347 -0.715222898530941 0.42686184310066
         vertex -0.75258947382223 -0.715222898530941 0.479204846371741
      endloop
   endfacet
   facet normal -1 -4.44785072743193E-15 2.2271060180081E-12
      outer loop
         vertex -0.75258947382223 -0.715222898530941 0.479204846371741
         vertex -0.752589473822347 -0.715222898530941 0.42686184310066
         vertex -0.752589473822173 -0.720677546936593 0.504866949497587
      endloop
   endfacet
   facet normal -1 2.24578115148645E-15 2.22757408234571E-12
      outer loop
         vertex -0.752589473822347 -0.715222898530941 0.42686184310066
         vertex -0.752589473822404 -0.720677546936593 0.401199739974813
         vertex -0.752589473822173 -0.720677546936593 0.504866949497587
      endloop
   endfacet
   facet normal -1 8.00828610616544E-15 2.22757408234571E-12
      outer loop
         vertex -0.752589473822173 -0.720677546936593 0.504866949497587
         vertex -0.752589473822404 -0.720677546936593 0.401199739974813
         vertex -0.752589473822118 -0.729650585548102 0.529520170466604
      endloop
   endfacet
   facet normal -1 -5.42705665817791E-15 2.22663459165883E-12
      outer loop
         vertex -0.752589473822404 -0.720677546936593 0.401199739974813
         vertex -0.752589473822459 -0.729650585548102 0.376546519005796
         vertex -0.752589473822118 -0.729650585548102 0.529520170466604
      endloop
   endfacet
   facet normal -1 -3.77628466988318E-15 2.22663459165883E-12
      outer loop
         vertex -0.752589473822118 -0.729650585548102 0.529520170466604
         vertex -0.752589473822459 -0.729650585548102 0.376546519005796
         vertex -0.752589473822066 -0.741967364375578 0.552684662375254
      endloop
   endfacet
   facet normal -1 2.89846671673459E-15 2.22710133574381E-12
      outer loop
         vertex -0.752589473822459 -0.729650585548102 0.376546519005796
         vertex -0.75258947382251 -0.741967364375578 0.353382027097146
         vertex -0.752589473822066 -0.741967364375578 0.552684662375254
      endloop
   endfacet
   facet normal -1 -1.65456649954179E-15 2.22710133574382E-12
      outer loop
         vertex -0.752589473822066 -0.741967364375578 0.552684662375254
         vertex -0.75258947382251 -0.741967364375578 0.353382027097146
         vertex -0.752589473822019 -0.75738815132927 0.573909554737754
      endloop
   endfacet
   facet normal -1 1.36403790124341E-15 2.22731241712608E-12
      outer loop
         vertex -0.75258947382251 -0.741967364375578 0.353382027097146
         vertex -0.752589473822557 -0.75738815132927 0.332157134734646
         vertex -0.752589473822019 -0.75738815132927 0.573909554737754
      endloop
   endfacet
   facet normal -1 3.72013318486646E-15 2.22731241712608E-12
      outer loop
         vertex -0.752589473822019 -0.75738815132927 0.573909554737754
         vertex -0.752589473822557 -0.75738815132927 0.332157134734646
         vertex -0.752589473821977 -0.77561279833201 0.592781729167224
      endloop
   endfacet
   facet normal -1 -3.21775168936197E-15 2.22682727295519E-12
      outer loop
         vertex -0.752589473822557 -0.75738815132927 0.332157134734646
         vertex -0.752589473822599 -0.77561279833201 0.313284960305176
         vertex -0.752589473821977 -0.77561279833201 0.592781729167224
      endloop
   endfacet
   facet normal -1 -1.55751588435483E-16 2.22682727295519E-12
      outer loop
         vertex -0.752589473821977 -0.77561279833201 0.592781729167224
         vertex -0.752589473822599 -0.77561279833201 0.313284960305176
         vertex -0.752589473821941 -0.796286583360119 0.608933860255176
      endloop
   endfacet
   facet normal -1 1.39614886993346E-16 2.22684792699118E-12
      outer loop
         vertex -0.752589473822599 -0.77561279833201 0.313284960305176
         vertex -0.752589473822635 -0.79628658336012 0.297132829217225
         vertex -0.752589473821941 -0.796286583360119 0.608933860255176
      endloop
   endfacet
   facet normal -1 -4.34646148073014E-15 2.22684792699118E-12
      outer loop
         vertex -0.752589473821941 -0.796286583360119 0.608933860255176
         vertex -0.752589473822635 -0.79628658336012 0.297132829217225
         vertex -0.752589473821912 -0.819007114704107 0.622051565142759
      endloop
   endfacet
   facet normal -1 4.009127441404E-15 2.22743220668641E-12
      outer loop
         vertex -0.752589473822635 -0.79628658336012 0.297132829217225
         vertex -0.752589473822665 -0.819007114704107 0.284015124329642
         vertex -0.752589473821912 -0.819007114704107 0.622051565142759
      endloop
   endfacet
   facet normal -1 8.10499432647771E-16 2.22743220668641E-12
      outer loop
         vertex -0.752589473821912 -0.819007114704107 0.622051565142759
         vertex -0.752589473822665 -0.819007114704107 0.284015124329642
         vertex -0.75258947382189 -0.843332163065585 0.631879522625504
      endloop
   endfacet
   facet normal -1 -7.65960857327154E-16 2.22732196984418E-12
      outer loop
         vertex -0.752589473822665 -0.819007114704107 0.284015124329642
         vertex -0.752589473822687 -0.843332163065585 0.274187166846897
         vertex -0.75258947382189 -0.843332163065585 0.631879522625504
      endloop
   endfacet
   facet normal -1 1.44570768634295E-15 2.22732196984418E-12
      outer loop
         vertex -0.75258947382189 -0.843332163065585 0.631879522625504
         vertex -0.752589473822687 -0.843332163065585 0.274187166846897
         vertex -0.752589473821876 -0.868788269047527 0.638226442690146
      endloop
   endfacet
   facet normal -1 -1.3961605313865E-15 2.22712324705975E-12
      outer loop
         vertex -0.752589473822687 -0.843332163065585 0.274187166846897
         vertex -0.752589473822701 -0.868788269047527 0.267840246782254
         vertex -0.752589473821876 -0.868788269047527 0.638226442690146
      endloop
   endfacet
   facet normal -1 5.05244773510712E-17 2.22712324705975E-12
      outer loop
         vertex -0.752589473821876 -0.868788269047527 0.638226442690146
         vertex -0.752589473822701 -0.868788269047527 0.267840246782254
         vertex -0.75258947382187 -0.894879958502888 0.640968789757141
      endloop
   endfacet
   facet normal -1 -4.97872260451255E-17 2.22711623258213E-12
      outer loop
         vertex -0.752589473822701 -0.868788269047527 0.267840246782254
         vertex -0.752589473822707 -0.894879958502888 0.265097899715259
         vertex -0.75258947382187 -0.894879958502888 0.640968789757141
      endloop
   endfacet
   facet normal -1 -1.55426587132599E-15 2.22711623258213E-12
      outer loop
         vertex -0.75258947382187 -0.894879958502888 0.640968789757141
         vertex -0.752589473822707 -0.894879958502888 0.265097899715259
         vertex -0.752589473821872 -0.921099386375276 0.640053187160204
      endloop
   endfacet
   facet normal -1 1.56187517015584E-15 2.22733413439073E-12
      outer loop
         vertex -0.752589473822707 -0.894879958502888 0.265097899715259
         vertex -0.752589473822705 -0.921099386375276 0.266013502312196
         vertex -0.752589473821872 -0.921099386375276 0.640053187160204
      endloop
   endfacet
   facet normal -1 2.58996295171273E-15 2.22733413439073E-12
      outer loop
         vertex -0.752589473821872 -0.921099386375276 0.640053187160204
         vertex -0.752589473822705 -0.921099386375276 0.266013502312196
         vertex -0.752589473821882 -0.946936221325311 0.635497456062401
      endloop
   endfacet
   facet normal -1 -2.65462868063607E-15 2.22696739681793E-12
      outer loop
         vertex -0.752589473822705 -0.921099386375276 0.266013502312196
         vertex -0.752589473822695 -0.946936221325311 0.270569233409999
         vertex -0.752589473821882 -0.946936221325311 0.635497456062401
      endloop
   endfacet
   facet normal -1 -2.75853479360954E-15 2.22696739681793E-12
      outer loop
         vertex -0.752589473821882 -0.946936221325311 0.635497456062401
         vertex -0.752589473822695 -0.946936221325311 0.270569233409999
         vertex -0.7525894738219 -0.971887578749656 0.627390268587484
      endloop
   endfacet
   facet normal -1 2.88680018298366E-15 2.2273621570952E-12
      outer loop
         vertex -0.752589473822695 -0.946936221325311 0.270569233409999
         vertex -0.752589473822677 -0.971887578749656 0.278676420884916
         vertex -0.7525894738219 -0.971887578749656 0.627390268587484
      endloop
   endfacet
   facet normal -1 1.2553406916676E-15 2.2273621570952E-12
      outer loop
         vertex -0.7525894738219 -0.971887578749656 0.627390268587484
         vertex -0.752589473822677 -0.971887578749656 0.278676420884916
         vertex -0.752589473821926 -0.995467808857794 0.615889421917864
      endloop
   endfacet
   facet normal -1 -1.34399246975141E-15 2.22718039401404E-12
      outer loop
         vertex -0.752589473822677 -0.971887578749656 0.278676420884916
         vertex -0.752589473822651 -0.995467808857794 0.290177267554536
         vertex -0.752589473821926 -0.995467808857794 0.615889421917864
      endloop
   endfacet
   facet normal -1 -1.54657316175639E-15 2.22718039401404E-12
      outer loop
         vertex -0.752589473821926 -0.995467808857794 0.615889421917864
         vertex -0.752589473822651 -0.995467808857794 0.290177267554536
         vertex -0.752589473821958 -1.01721794929278 0.601218766951944
      endloop
   endfacet
   facet normal -1 1.69968701666415E-15 2.22740739463906E-12
      outer loop
         vertex -0.752589473822651 -0.995467808857794 0.290177267554536
         vertex -0.752589473822618 -1.01721794929278 0.304847922520456
         vertex -0.752589473821958 -1.01721794929278 0.601218766951944
      endloop
   endfacet
   facet normal -1 4.56096647066332E-15 2.22740739463906E-12
      outer loop
         vertex -0.752589473821958 -1.01721794929278 0.601218766951944
         vertex -0.752589473822618 -1.01721794929278 0.304847922520456
         vertex -0.752589473821997 -1.03671465831148 0.583663851301015
      endloop
   endfacet
   facet normal -1 -5.17389666425969E-15 2.22672666669533E-12
      outer loop
         vertex -0.752589473822618 -1.01721794929278 0.304847922520456
         vertex -0.752589473822579 -1.03671465831148 0.322402838171386
         vertex -0.752589473821997 -1.03671465831148 0.583663851301015
      endloop
   endfacet
   facet normal -1 -5.70970930044094E-16 2.22672666669533E-12
      outer loop
         vertex -0.752589473821997 -1.03671465831148 0.583663851301015
         vertex -0.752589473822579 -1.03671465831148 0.322402838171386
         vertex -0.752589473822042 -1.05357845465 0.5635663614298
      endloop
   endfacet
   facet normal -1 6.74786810824543E-16 2.2268137785626E-12
      outer loop
         vertex -0.752589473822579 -1.03671465831148 0.322402838171386
         vertex -0.752589473822534 -1.05357845465 0.342500328042601
         vertex -0.752589473822042 -1.05357845465 0.5635663614298
      endloop
   endfacet
   facet normal -1 -2.02741065125801E-15 2.2268137785626E-12
      outer loop
         vertex -0.752589473822042 -1.05357845465 0.5635663614298
         vertex -0.752589473822534 -1.05357845465 0.342500328042601
         vertex -0.752589473822092 -1.06748110369491 0.541317472118087
      endloop
   endfacet
   facet normal -1 2.53834774160559E-15 2.22713304749111E-12
      outer loop
         vertex -0.752589473822534 -1.05357845465 0.342500328042601
         vertex -0.752589473822485 -1.06748110369491 0.364749217354313
         vertex -0.752589473822092 -1.06748110369491 0.541317472118087
      endloop
   endfacet
   facet normal -1 2.20192189990453E-15 2.22713304749112E-12
      outer loop
         vertex -0.752589473822092 -1.06748110369491 0.541317472118087
         vertex -0.752589473822485 -1.06748110369491 0.364749217354313
         vertex -0.752589473822145 -1.07815200619658 0.517350232688592
      endloop
   endfacet
   facet normal -1 -3.02245272874568E-15 2.22676772362893E-12
      outer loop
         vertex -0.752589473822485 -1.06748110369491 0.364749217354313
         vertex -0.752589473822431 -1.07815200619658 0.388716456783808
         vertex -0.752589473822145 -1.07815200619658 0.517350232688592
      endloop
   endfacet
   facet normal -1 2.79603430699287E-15 2.22676772362894E-12
      outer loop
         vertex -0.752589473822145 -1.07815200619658 0.517350232688592
         vertex -0.752589473822431 -1.07815200619658 0.388716456783808
         vertex -0.752589473822201 -1.08538346517579 0.49213113819448
      endloop
   endfacet
   facet normal -1 -4.59954921560656E-15 2.22625057405074E-12
      outer loop
         vertex -0.752589473822431 -1.07815200619658 0.388716456783808
         vertex -0.752589473822375 -1.08538346517579 0.413935551277921
         vertex -0.752589473822201 -1.08538346517579 0.49213113819448
      endloop
   endfacet
   facet normal -1 1.21396025512063E-15 2.22625057405074E-12
      outer loop
         vertex -0.752589473822201 -1.08538346517579 0.49213113819448
         vertex -0.752589473822375 -1.08538346517579 0.413935551277921
         vertex -0.752589473822259 -1.08903472850915 0.466151049623783
      endloop
   endfacet
   facet normal -1 -3.61825240992117E-15 2.22591267282444E-12
      outer loop
         vertex -0.752589473822375 -1.08538346517579 0.413935551277921
         vertex -0.752589473822317 -1.08903472850915 0.439915639848617
         vertex -0.752589473822259 -1.08903472850915 0.466151049623783
      endloop
   endfacet
   facet normal 1 0 -2.2271060180081E-12
      outer loop
         vertex -0.563979473822288 -0.713392808857793 0.45303334473578
         vertex -0.56397947382223 -0.715222898530941 0.47920484637132
         vertex -0.563979473822347 -0.715222898530941 0.42686184310024
      endloop
   endfacet
   facet normal 1 -4.44785072740982E-15 -2.2271060180081E-12
      outer loop
         vertex -0.563979473822347 -0.715222898530941 0.42686184310024
         vertex -0.56397947382223 -0.715222898530941 0.47920484637132
         vertex -0.563979473822404 -0.720677546936593 0.401199739974393
      endloop
   endfacet
   facet normal 1 2.2457811515269E-15 -2.22757408234571E-12
      outer loop
         vertex -0.56397947382223 -0.715222898530941 0.47920484637132
         vertex -0.563979473822173 -0.720677546936593 0.504866949497167
         vertex -0.563979473822404 -0.720677546936593 0.401199739974393
      endloop
   endfacet
   facet normal 1 8.00828610616883E-15 -2.22757408234571E-12
      outer loop
         vertex -0.563979473822404 -0.720677546936593 0.401199739974393
         vertex -0.563979473822173 -0.720677546936593 0.504866949497167
         vertex -0.563979473822459 -0.729650585548102 0.376546519005376
      endloop
   endfacet
   facet normal 1 -5.42705665818021E-15 -2.22663459165883E-12
      outer loop
         vertex -0.563979473822173 -0.720677546936593 0.504866949497167
         vertex -0.563979473822118 -0.729650585548102 0.529520170466184
         vertex -0.563979473822459 -0.729650585548102 0.376546519005376
      endloop
   endfacet
   facet normal 1 -3.7762846699016E-15 -2.22663459165883E-12
      outer loop
         vertex -0.563979473822459 -0.729650585548102 0.376546519005376
         vertex -0.563979473822118 -0.729650585548102 0.529520170466184
         vertex -0.56397947382251 -0.741967364375578 0.353382027096726
      endloop
   endfacet
   facet normal 1 2.89846671671274E-15 -2.22710133574382E-12
      outer loop
         vertex -0.563979473822118 -0.729650585548102 0.529520170466184
         vertex -0.563979473822066 -0.741967364375578 0.552684662374834
         vertex -0.56397947382251 -0.741967364375578 0.353382027096726
      endloop
   endfacet
   facet normal 1 -1.65456649954076E-15 -2.22710133574382E-12
      outer loop
         vertex -0.56397947382251 -0.741967364375578 0.353382027096726
         vertex -0.563979473822066 -0.741967364375578 0.552684662374834
         vertex -0.563979473822558 -0.75738815132927 0.332157134734226
      endloop
   endfacet
   facet normal 1 1.36403790124256E-15 -2.22731241712608E-12
      outer loop
         vertex -0.563979473822066 -0.741967364375578 0.552684662374834
         vertex -0.563979473822019 -0.75738815132927 0.573909554737334
         vertex -0.563979473822558 -0.75738815132927 0.332157134734226
      endloop
   endfacet
   facet normal 1 3.72013318488043E-15 -2.22731241712608E-12
      outer loop
         vertex -0.563979473822558 -0.75738815132927 0.332157134734226
         vertex -0.563979473822019 -0.75738815132927 0.573909554737334
         vertex -0.563979473822599 -0.77561279833201 0.313284960304756
      endloop
   endfacet
   facet normal 1 -3.21775168936785E-15 -2.22682727295519E-12
      outer loop
         vertex -0.563979473822019 -0.75738815132927 0.573909554737334
         vertex -0.563979473821977 -0.77561279833201 0.592781729166804
         vertex -0.563979473822599 -0.77561279833201 0.313284960304756
      endloop
   endfacet
   facet normal 1 -1.55751588436028E-16 -2.22682727295519E-12
      outer loop
         vertex -0.563979473822599 -0.77561279833201 0.313284960304756
         vertex -0.563979473821977 -0.77561279833201 0.592781729166804
         vertex -0.563979473822635 -0.79628658336012 0.297132829216805
      endloop
   endfacet
   facet normal 1 1.39614887005585E-16 -2.22684792699118E-12
      outer loop
         vertex -0.563979473821977 -0.77561279833201 0.592781729166804
         vertex -0.563979473821941 -0.796286583360119 0.608933860254756
         vertex -0.563979473822635 -0.79628658336012 0.297132829216805
      endloop
   endfacet
   facet normal 1 -4.34646148074108E-15 -2.22684792699118E-12
      outer loop
         vertex -0.563979473822635 -0.79628658336012 0.297132829216805
         vertex -0.563979473821941 -0.796286583360119 0.608933860254756
         vertex -0.563979473822665 -0.819007114704107 0.284015124329222
      endloop
   endfacet
   facet normal 1 4.00912744140357E-15 -2.22743220668641E-12
      outer loop
         vertex -0.563979473821941 -0.796286583360119 0.608933860254756
         vertex -0.563979473821912 -0.819007114704107 0.622051565142338
         vertex -0.563979473822665 -0.819007114704107 0.284015124329222
      endloop
   endfacet
   facet normal 1 8.10499432647963E-16 -2.22743220668641E-12
      outer loop
         vertex -0.563979473822665 -0.819007114704107 0.284015124329222
         vertex -0.563979473821912 -0.819007114704107 0.622051565142338
         vertex -0.563979473822687 -0.843332163065585 0.274187166846476
      endloop
   endfacet
   facet normal 1 -7.65960857332413E-16 -2.22732196984418E-12
      outer loop
         vertex -0.563979473821912 -0.819007114704107 0.622051565142338
         vertex -0.56397947382189 -0.843332163065585 0.631879522625084
         vertex -0.563979473822687 -0.843332163065585 0.274187166846476
      endloop
   endfacet
   facet normal 1 1.44570768635274E-15 -2.22732196984418E-12
      outer loop
         vertex -0.563979473822687 -0.843332163065585 0.274187166846476
         vertex -0.56397947382189 -0.843332163065585 0.631879522625084
         vertex -0.563979473822701 -0.868788269047527 0.267840246781834
      endloop
   endfacet
   facet normal 1 -1.39616053139118E-15 -2.22712324705975E-12
      outer loop
         vertex -0.56397947382189 -0.843332163065585 0.631879522625084
         vertex -0.563979473821876 -0.868788269047527 0.638226442689726
         vertex -0.563979473822701 -0.868788269047527 0.267840246781834
      endloop
   endfacet
   facet normal 1 5.05244773415206E-17 -2.22712324705975E-12
      outer loop
         vertex -0.563979473822701 -0.868788269047527 0.267840246781834
         vertex -0.563979473821876 -0.868788269047527 0.638226442689726
         vertex -0.563979473822707 -0.894879958502888 0.265097899714839
      endloop
   endfacet
   facet normal 1 -4.97872260357143E-17 -2.22711623258213E-12
      outer loop
         vertex -0.563979473821876 -0.868788269047527 0.638226442689726
         vertex -0.56397947382187 -0.894879958502888 0.640968789756721
         vertex -0.563979473822707 -0.894879958502888 0.265097899714839
      endloop
   endfacet
   facet normal 1 -1.554265871326E-15 -2.22711623258213E-12
      outer loop
         vertex -0.563979473822707 -0.894879958502888 0.265097899714839
         vertex -0.56397947382187 -0.894879958502888 0.640968789756721
         vertex -0.563979473822705 -0.921099386375276 0.266013502311776
      endloop
   endfacet
   facet normal 1 1.56187517015586E-15 -2.22733413439073E-12
      outer loop
         vertex -0.56397947382187 -0.894879958502888 0.640968789756721
         vertex -0.563979473821872 -0.921099386375276 0.640053187159784
         vertex -0.563979473822705 -0.921099386375276 0.266013502311776
      endloop
   endfacet
   facet normal 1 2.5899629517173E-15 -2.22733413439073E-12
      outer loop
         vertex -0.563979473822705 -0.921099386375276 0.266013502311776
         vertex -0.563979473821872 -0.921099386375276 0.640053187159784
         vertex -0.563979473822695 -0.946936221325311 0.270569233409579
      endloop
   endfacet
   facet normal 1 -2.65462868064578E-15 -2.22696739681793E-12
      outer loop
         vertex -0.563979473821872 -0.921099386375276 0.640053187159784
         vertex -0.563979473821882 -0.946936221325311 0.635497456061981
         vertex -0.563979473822695 -0.946936221325311 0.270569233409579
      endloop
   endfacet
   facet normal 1 -2.75853479360946E-15 -2.22696739681793E-12
      outer loop
         vertex -0.563979473822695 -0.946936221325311 0.270569233409579
         vertex -0.563979473821882 -0.946936221325311 0.635497456061981
         vertex -0.563979473822677 -0.971887578749656 0.278676420884496
      endloop
   endfacet
   facet normal 1 2.88680018298356E-15 -2.2273621570952E-12
      outer loop
         vertex -0.563979473821882 -0.946936221325311 0.635497456061981
         vertex -0.5639794738219 -0.971887578749656 0.627390268587064
         vertex -0.563979473822677 -0.971887578749656 0.278676420884496
      endloop
   endfacet
   facet normal 1 1.25534069167298E-15 -2.2273621570952E-12
      outer loop
         vertex -0.563979473822677 -0.971887578749656 0.278676420884496
         vertex -0.5639794738219 -0.971887578749656 0.627390268587064
         vertex -0.563979473822651 -0.995467808857794 0.290177267554116
      endloop
   endfacet
   facet normal 1 -1.34399246974607E-15 -2.22718039401404E-12
      outer loop
         vertex -0.5639794738219 -0.971887578749656 0.627390268587064
         vertex -0.563979473821926 -0.995467808857794 0.615889421917444
         vertex -0.563979473822651 -0.995467808857794 0.290177267554116
      endloop
   endfacet
   facet normal 1 -1.54657316176753E-15 -2.22718039401404E-12
      outer loop
         vertex -0.563979473822651 -0.995467808857794 0.290177267554116
         vertex -0.563979473821926 -0.995467808857794 0.615889421917444
         vertex -0.563979473822618 -1.01721794929278 0.304847922520036
      endloop
   endfacet
   facet normal 1 1.69968701665852E-15 -2.22740739463906E-12
      outer loop
         vertex -0.563979473821926 -0.995467808857794 0.615889421917444
         vertex -0.563979473821958 -1.01721794929278 0.601218766951524
         vertex -0.563979473822618 -1.01721794929278 0.304847922520036
      endloop
   endfacet
   facet normal 1 4.56096647066332E-15 -2.22740739463906E-12
      outer loop
         vertex -0.563979473822618 -1.01721794929278 0.304847922520036
         vertex -0.563979473821958 -1.01721794929278 0.601218766951524
         vertex -0.563979473822579 -1.03671465831148 0.322402838170966
      endloop
   endfacet
   facet normal 1 -5.17389666425288E-15 -2.22672666669533E-12
      outer loop
         vertex -0.563979473821958 -1.01721794929278 0.601218766951524
         vertex -0.563979473821997 -1.03671465831148 0.583663851300595
         vertex -0.563979473822579 -1.03671465831148 0.322402838170966
      endloop
   endfacet
   facet normal 1 -5.7097093004481E-16 -2.22672666669533E-12
      outer loop
         vertex -0.563979473822579 -1.03671465831148 0.322402838170966
         vertex -0.563979473821997 -1.03671465831148 0.583663851300595
         vertex -0.563979473822534 -1.05357845465 0.342500328042181
      endloop
   endfacet
   facet normal 1 6.74786810824966E-16 -2.2268137785626E-12
      outer loop
         vertex -0.563979473821997 -1.03671465831148 0.583663851300595
         vertex -0.563979473822042 -1.05357845465 0.56356636142938
         vertex -0.563979473822534 -1.05357845465 0.342500328042181
      endloop
   endfacet
   facet normal 1 -2.02741065125904E-15 -2.2268137785626E-12
      outer loop
         vertex -0.563979473822534 -1.05357845465 0.342500328042181
         vertex -0.563979473822042 -1.05357845465 0.56356636142938
         vertex -0.563979473822485 -1.06748110369491 0.364749217353893
      endloop
   endfacet
   facet normal 1 2.53834774159659E-15 -2.22713304749112E-12
      outer loop
         vertex -0.563979473822042 -1.05357845465 0.56356636142938
         vertex -0.563979473822092 -1.06748110369491 0.541317472117667
         vertex -0.563979473822485 -1.06748110369491 0.364749217353893
      endloop
   endfacet
   facet normal 1 2.20192189992797E-15 -2.22713304749112E-12
      outer loop
         vertex -0.563979473822485 -1.06748110369491 0.364749217353893
         vertex -0.563979473822092 -1.06748110369491 0.541317472117667
         vertex -0.563979473822432 -1.07815200619658 0.388716456783388
      endloop
   endfacet
   facet normal 1 -3.02245272875028E-15 -2.22676772362893E-12
      outer loop
         vertex -0.563979473822092 -1.06748110369491 0.541317472117667
         vertex -0.563979473822145 -1.07815200619658 0.517350232688172
         vertex -0.563979473822432 -1.07815200619658 0.388716456783388
      endloop
   endfacet
   facet normal 1 2.79603430696404E-15 -2.22676772362893E-12
      outer loop
         vertex -0.563979473822432 -1.07815200619658 0.388716456783388
         vertex -0.563979473822145 -1.07815200619658 0.517350232688172
         vertex -0.563979473822375 -1.08538346517579 0.4139355512775
      endloop
   endfacet
   facet normal 1 -4.59954921560656E-15 -2.22625057405074E-12
      outer loop
         vertex -0.563979473822145 -1.07815200619658 0.517350232688172
         vertex -0.563979473822201 -1.08538346517579 0.49213113819406
         vertex -0.563979473822375 -1.08538346517579 0.4139355512775
      endloop
   endfacet
   facet normal 1 1.21396025515379E-15 -2.22625057405074E-12
      outer loop
         vertex -0.563979473822375 -1.08538346517579 0.4139355512775
         vertex -0.563979473822201 -1.08538346517579 0.49213113819406
         vertex -0.563979473822318 -1.08903472850915 0.439915639848197
      endloop
   endfacet
   facet normal 1 -3.61825240988412E-15 -2.22591267282444E-12
      outer loop
         vertex -0.563979473822201 -1.08538346517579 0.49213113819406
         vertex -0.563979473822259 -1.08903472850915 0.466151049623363
         vertex -0.563979473822318 -1.08903472850915 0.439915639848197
      endloop
   endfacet
endsolid
