solid "inner_volume"
   facet normal 1 0 -2.22874736384239E-12
      outer loop
         vertex -0.588979473822288 -0.761851400049904 0.453033344735836
         vertex -0.588979473822245 -0.76320989404469 0.472460713967014
         vertex -0.588979473822332 -0.76320989404469 0.433605975504658
      endloop
   endfacet
   facet normal 1 1.12171058965405E-14 -2.22874736384239E-12
      outer loop
         vertex -0.588979473822332 -0.76320989404469 0.433605975504658
         vertex -0.588979473822245 -0.76320989404469 0.472460713967014
         vertex -0.588979473822374 -0.767258934488703 0.41455673791726
      endloop
   endfacet
   facet normal 1 -5.66367140914009E-15 -2.22756694490228E-12
      outer loop
         vertex -0.588979473822245 -0.76320989404469 0.472460713967014
         vertex -0.588979473822203 -0.767258934488703 0.491509951554412
         vertex -0.588979473822374 -0.767258934488703 0.41455673791726
      endloop
   endfacet
   facet normal 1 3.00783915860352E-15 -2.22756694490228E-12
      outer loop
         vertex -0.588979473822374 -0.767258934488703 0.41455673791726
         vertex -0.588979473822203 -0.767258934488703 0.491509951554412
         vertex -0.588979473822415 -0.773919711415415 0.396256403715093
      endloop
   endfacet
   facet normal 1 -2.03835294041375E-15 -2.22721408077634E-12
      outer loop
         vertex -0.588979473822203 -0.767258934488703 0.491509951554412
         vertex -0.588979473822162 -0.773919711415415 0.509810285756578
         vertex -0.588979473822415 -0.773919711415415 0.396256403715093
      endloop
   endfacet
   facet normal 1 -5.71312639042194E-16 -2.22721408077634E-12
      outer loop
         vertex -0.588979473822415 -0.773919711415415 0.396256403715093
         vertex -0.588979473822162 -0.773919711415415 0.509810285756578
         vertex -0.588979473822453 -0.78306258037847 0.379061168087083
      endloop
   endfacet
   facet normal 1 4.3850790230609E-16 -2.22728469430743E-12
      outer loop
         vertex -0.588979473822162 -0.773919711415415 0.509810285756578
         vertex -0.588979473822124 -0.78306258037847 0.527005521384589
         vertex -0.588979473822453 -0.78306258037847 0.379061168087083
      endloop
   endfacet
   facet normal 1 7.71212113710898E-16 -2.22728469430743E-12
      outer loop
         vertex -0.588979473822453 -0.78306258037847 0.379061168087083
         vertex -0.588979473822124 -0.78306258037847 0.527005521384589
         vertex -0.588979473822488 -0.794509585833361 0.363305716735436
      endloop
   endfacet
   facet normal 1 -6.35793456044851E-16 -2.22718630689355E-12
      outer loop
         vertex -0.588979473822124 -0.78306258037847 0.527005521384589
         vertex -0.588979473822088 -0.794509585833361 0.542760972736235
         vertex -0.588979473822488 -0.794509585833361 0.363305716735436
      endloop
   endfacet
   facet normal 1 2.51133621202692E-16 -2.22718630689355E-12
      outer loop
         vertex -0.588979473822488 -0.794509585833361 0.363305716735436
         vertex -0.588979473822088 -0.794509585833361 0.542760972736235
         vertex -0.588979473822519 -0.808037924839683 0.349296711599153
      endloop
   endfacet
   facet normal 1 -2.17219543957807E-16 -2.22715355644985E-12
      outer loop
         vertex -0.588979473822088 -0.794509585833361 0.542760972736235
         vertex -0.588979473822057 -0.808037924839683 0.556769977872518
         vertex -0.588979473822519 -0.808037924839683 0.349296711599153
      endloop
   endfacet
   facet normal 1 3.77761324543025E-15 -2.22715355644985E-12
      outer loop
         vertex -0.588979473822519 -0.808037924839683 0.349296711599153
         vertex -0.588979473822057 -0.808037924839683 0.556769977872518
         vertex -0.588979473822546 -0.823384283666938 0.337306822028205
      endloop
   endfacet
   facet normal 1 -3.38623221544811E-15 -2.22665261157551E-12
      outer loop
         vertex -0.588979473822057 -0.808037924839683 0.556769977872518
         vertex -0.588979473822031 -0.823384283666938 0.568759867443467
         vertex -0.588979473822546 -0.823384283666938 0.337306822028205
      endloop
   endfacet
   facet normal 1 -4.657639202664E-15 -2.22665261157551E-12
      outer loop
         vertex -0.588979473822546 -0.823384283666938 0.337306822028205
         vertex -0.588979473822031 -0.823384283666938 0.568759867443467
         vertex -0.588979473822568 -0.840249962896776 0.327569417584792
      endloop
   endfacet
   facet normal 1 4.29615429065146E-15 -2.2272787218093E-12
      outer loop
         vertex -0.588979473822031 -0.823384283666938 0.568759867443467
         vertex -0.588979473822009 -0.840249962896776 0.57849727188688
         vertex -0.588979473822568 -0.840249962896776 0.327569417584792
      endloop
   endfacet
   facet normal 1 2.19390774459147E-15 -2.2272787218093E-12
      outer loop
         vertex -0.588979473822568 -0.840249962896776 0.327569417584792
         vertex -0.588979473822009 -0.840249962896776 0.57849727188688
         vertex -0.588979473822584 -0.858306691267415 0.320274025770272
      endloop
   endfacet
   facet normal 1 -2.07334809780798E-15 -2.22698032621249E-12
      outer loop
         vertex -0.588979473822009 -0.840249962896776 0.57849727188688
         vertex -0.588979473821993 -0.858306691267415 0.585792663701399
         vertex -0.588979473822584 -0.858306691267415 0.320274025770272
      endloop
   endfacet
   facet normal 1 -2.90861818365076E-15 -2.22698032621249E-12
      outer loop
         vertex -0.588979473822584 -0.858306691267415 0.320274025770272
         vertex -0.588979473821993 -0.858306691267415 0.585792663701399
         vertex -0.588979473822595 -0.877203015100344 0.31556264308793
      endloop
   endfacet
   facet normal 1 2.80893430064994E-15 -2.22738013642984E-12
      outer loop
         vertex -0.588979473821993 -0.858306691267415 0.585792663701399
         vertex -0.588979473821982 -0.877203015100344 0.590504046383742
         vertex -0.588979473822595 -0.877203015100344 0.31556264308793
      endloop
   endfacet
   facet normal 1 -9.13840103187179E-16 -2.22738013642984E-12
      outer loop
         vertex -0.588979473822595 -0.877203015100344 0.31556264308793
         vertex -0.588979473821982 -0.877203015100344 0.590504046383742
         vertex -0.588979473822599 -0.896571138946405 0.313526971242559
      endloop
   endfacet
   facet normal 1 9.00505382167493E-16 -2.22750700782539E-12
      outer loop
         vertex -0.588979473821982 -0.877203015100344 0.590504046383742
         vertex -0.588979473821978 -0.896571138946405 0.592539718229113
         vertex -0.588979473822599 -0.896571138946405 0.313526971242559
      endloop
   endfacet
   facet normal 1 2.07381409846784E-15 -2.22750700782539E-12
      outer loop
         vertex -0.588979473822599 -0.896571138946405 0.313526971242559
         vertex -0.588979473821978 -0.896571138946405 0.592539718229113
         vertex -0.588979473822598 -0.916034084305849 0.314206632271086
      endloop
   endfacet
   facet normal 1 -2.08396697608937E-15 -2.22721626745009E-12
      outer loop
         vertex -0.588979473821978 -0.896571138946405 0.592539718229113
         vertex -0.588979473821979 -0.916034084305849 0.591860057200585
         vertex -0.588979473822598 -0.916034084305849 0.314206632271086
      endloop
   endfacet
   facet normal 1 9.1738022351414E-16 -2.22721626745009E-12
      outer loop
         vertex -0.588979473822598 -0.916034084305849 0.314206632271086
         vertex -0.588979473821979 -0.916034084305849 0.591860057200585
         vertex -0.58897947382259 -0.935213027086026 0.317588397344696
      endloop
   endfacet
   facet normal 1 -9.40285207848899E-16 -2.22708636682882E-12
      outer loop
         vertex -0.588979473821979 -0.916034084305849 0.591860057200585
         vertex -0.588979473821987 -0.935213027086026 0.588478292126976
         vertex -0.58897947382259 -0.935213027086026 0.317588397344696
      endloop
   endfacet
   facet normal 1 1.67308981191102E-15 -2.22708636682882E-12
      outer loop
         vertex -0.58897947382259 -0.935213027086026 0.317588397344696
         vertex -0.588979473821987 -0.935213027086026 0.588478292126976
         vertex -0.588979473822577 -0.953734670981445 0.323606444252929
      endloop
   endfacet
   facet normal 1 -1.75088455886067E-15 -2.2268469392169E-12
      outer loop
         vertex -0.588979473821987 -0.935213027086026 0.588478292126976
         vertex -0.588979473822 -0.953734670981445 0.582460245218743
         vertex -0.588979473822577 -0.953734670981445 0.323606444252929
      endloop
   endfacet
   facet normal 1 -1.49745904701081E-15 -2.22684693921689E-12
      outer loop
         vertex -0.588979473822577 -0.953734670981445 0.323606444252929
         vertex -0.588979473822 -0.953734670981445 0.582460245218743
         vertex -0.588979473822558 -0.971238513261738 0.332143638558145
      endloop
   endfacet
   facet normal 1 1.60320914975027E-15 -2.22706375905879E-12
      outer loop
         vertex -0.588979473822 -0.953734670981445 0.582460245218743
         vertex -0.588979473822019 -0.971238513261738 0.573923050913527
         vertex -0.588979473822558 -0.971238513261738 0.332143638558145
      endloop
   endfacet
   facet normal 1 -3.1124736180142E-15 -2.22706375905879E-12
      outer loop
         vertex -0.588979473822558 -0.971238513261738 0.332143638558145
         vertex -0.588979473822019 -0.971238513261738 0.573923050913527
         vertex -0.588979473822533 -0.987383861547246 0.343033813484107
      endloop
   endfacet
   facet normal 1 3.42061476887813E-15 -2.22752059710183E-12
      outer loop
         vertex -0.588979473822019 -0.971238513261738 0.573923050913527
         vertex -0.588979473822043 -0.987383861547246 0.563032875987564
         vertex -0.588979473822533 -0.987383861547246 0.343033813484107
      endloop
   endfacet
   facet normal 1 4.18705610097808E-15 -2.22752059710183E-12
      outer loop
         vertex -0.588979473822533 -0.987383861547246 0.343033813484107
         vertex -0.588979473822043 -0.987383861547246 0.563032875987564
         vertex -0.588979473822504 -1.00185646499865 0.356065004163272
      endloop
   endfacet
   facet normal 1 -4.74973796306735E-15 -2.22689567558394E-12
      outer loop
         vertex -0.588979473822043 -0.987383861547246 0.563032875987564
         vertex -0.588979473822072 -1.00185646499865 0.5500016853084
         vertex -0.588979473822504 -1.00185646499865 0.356065004163272
      endloop
   endfacet
   facet normal 1 -2.11122318565778E-15 -2.22689567558393E-12
      outer loop
         vertex -0.588979473822504 -1.00185646499865 0.356065004163272
         vertex -0.588979473822072 -1.00185646499865 0.5500016853084
         vertex -0.588979473822471 -1.01437463085212 0.370983573291829
      endloop
   endfacet
   facet normal 1 2.49509298184048E-15 -2.22721778058833E-12
      outer loop
         vertex -0.588979473822072 -1.00185646499865 0.5500016853084
         vertex -0.588979473822106 -1.01437463085212 0.535083116179843
         vertex -0.588979473822471 -1.01437463085212 0.370983573291829
      endloop
   endfacet
   facet normal 1 -3.43013831962794E-15 -2.22721778058833E-12
      outer loop
         vertex -0.588979473822471 -1.01437463085212 0.370983573291829
         vertex -0.588979473822106 -1.01437463085212 0.535083116179843
         vertex -0.588979473822434 -1.02469470724851 0.387499147891312
      endloop
   endfacet
   facet normal 1 4.29458326644738E-15 -2.227757945742E-12
      outer loop
         vertex -0.588979473822106 -1.01437463085212 0.535083116179843
         vertex -0.588979473822142 -1.02469470724851 0.51856754158036
         vertex -0.588979473822434 -1.02469470724851 0.387499147891312
      endloop
   endfacet
   facet normal 1 8.15431931921014E-17 -2.227757945742E-12
      outer loop
         vertex -0.588979473822434 -1.02469470724851 0.387499147891312
         vertex -0.588979473822142 -1.02469470724851 0.51856754158036
         vertex -0.588979473822395 -1.03261582563968 0.40529027108833
      endloop
   endfacet
   facet normal 1 -1.11929695102495E-16 -2.22774441679972E-12
      outer loop
         vertex -0.588979473822142 -1.02469470724851 0.51856754158036
         vertex -0.588979473822182 -1.03261582563968 0.500776418383342
         vertex -0.588979473822395 -1.03261582563968 0.40529027108833
      endloop
   endfacet
   facet normal 1 7.47883683273041E-15 -2.22774441679972E-12
      outer loop
         vertex -0.588979473822395 -1.03261582563968 0.40529027108833
         vertex -0.588979473822182 -1.03261582563968 0.500776418383342
         vertex -0.588979473822353 -1.03798381046628 0.424010658906954
      endloop
   endfacet
   facet normal 1 -1.23028812634826E-14 -2.22636114431849E-12
      outer loop
         vertex -0.588979473822182 -1.03261582563968 0.500776418383342
         vertex -0.588979473822224 -1.03798381046628 0.482056030564717
         vertex -0.588979473822353 -1.03798381046628 0.424010658906954
      endloop
   endfacet
   facet normal 1 1.09320587705432E-14 -2.22636114431849E-12
      outer loop
         vertex -0.588979473822353 -1.03798381046628 0.424010658906954
         vertex -0.588979473822224 -1.03798381046628 0.482056030564717
         vertex -0.58897947382231 -1.04069418000967 0.443295940292423
      endloop
   endfacet
   facet normal 1 -3.25833962228804E-14 -2.22331824728053E-12
      outer loop
         vertex -0.588979473822224 -1.03798381046628 0.482056030564717
         vertex -0.588979473822267 -1.04069418000967 0.462770749179249
         vertex -0.58897947382231 -1.04069418000967 0.443295940292423
      endloop
   endfacet
   facet normal -1 0 2.22874736384239E-12
      outer loop
         vertex -0.727589473822288 -0.761851400049904 0.453033344736144
         vertex -0.727589473822332 -0.76320989404469 0.433605975504966
         vertex -0.727589473822245 -0.76320989404469 0.472460713967323
      endloop
   endfacet
   facet normal -1 1.12171058966019E-14 2.22874736384239E-12
      outer loop
         vertex -0.727589473822245 -0.76320989404469 0.472460713967323
         vertex -0.727589473822332 -0.76320989404469 0.433605975504966
         vertex -0.727589473822203 -0.767258934488703 0.491509951554721
      endloop
   endfacet
   facet normal -1 -5.66367140910084E-15 2.22756694490228E-12
      outer loop
         vertex -0.727589473822332 -0.76320989404469 0.433605975504966
         vertex -0.727589473822374 -0.767258934488703 0.414556737917568
         vertex -0.727589473822203 -0.767258934488703 0.491509951554721
      endloop
   endfacet
   facet normal -1 3.00783915858044E-15 2.22756694490228E-12
      outer loop
         vertex -0.727589473822203 -0.767258934488703 0.491509951554721
         vertex -0.727589473822374 -0.767258934488703 0.414556737917568
         vertex -0.727589473822162 -0.773919711415415 0.509810285756887
      endloop
   endfacet
   facet normal -1 -2.0383529404294E-15 2.22721408077634E-12
      outer loop
         vertex -0.727589473822374 -0.767258934488703 0.414556737917568
         vertex -0.727589473822415 -0.773919711415415 0.396256403715402
         vertex -0.727589473822162 -0.773919711415415 0.509810285756887
      endloop
   endfacet
   facet normal -1 -5.71312639043713E-16 2.22721408077634E-12
      outer loop
         vertex -0.727589473822162 -0.773919711415415 0.509810285756887
         vertex -0.727589473822415 -0.773919711415415 0.396256403715402
         vertex -0.727589473822123 -0.78306258037847 0.527005521384898
      endloop
   endfacet
   facet normal -1 4.38507902307839E-16 2.22728469430743E-12
      outer loop
         vertex -0.727589473822415 -0.773919711415415 0.396256403715402
         vertex -0.727589473822453 -0.78306258037847 0.379061168087391
         vertex -0.727589473822123 -0.78306258037847 0.527005521384898
      endloop
   endfacet
   facet normal -1 7.71212113709966E-16 2.22728469430743E-12
      outer loop
         vertex -0.727589473822123 -0.78306258037847 0.527005521384898
         vertex -0.727589473822453 -0.78306258037847 0.379061168087391
         vertex -0.727589473822088 -0.794509585833361 0.542760972736544
      endloop
   endfacet
   facet normal -1 -6.35793456044083E-16 2.22718630689355E-12
      outer loop
         vertex -0.727589473822453 -0.78306258037847 0.379061168087391
         vertex -0.727589473822488 -0.794509585833361 0.363305716735745
         vertex -0.727589473822088 -0.794509585833361 0.542760972736544
      endloop
   endfacet
   facet normal -1 2.51133621202043E-16 2.22718630689355E-12
      outer loop
         vertex -0.727589473822088 -0.794509585833361 0.542760972736544
         vertex -0.727589473822488 -0.794509585833361 0.363305716735745
         vertex -0.727589473822057 -0.808037924839683 0.556769977872827
      endloop
   endfacet
   facet normal -1 -2.17219543957245E-16 2.22715355644985E-12
      outer loop
         vertex -0.727589473822488 -0.794509585833361 0.363305716735745
         vertex -0.727589473822519 -0.808037924839683 0.349296711599462
         vertex -0.727589473822057 -0.808037924839683 0.556769977872827
      endloop
   endfacet
   facet normal -1 3.77761324542179E-15 2.22715355644985E-12
      outer loop
         vertex -0.727589473822057 -0.808037924839683 0.556769977872827
         vertex -0.727589473822519 -0.808037924839683 0.349296711599462
         vertex -0.727589473822031 -0.823384283666938 0.568759867443775
      endloop
   endfacet
   facet normal -1 -3.38623221544036E-15 2.22665261157551E-12
      outer loop
         vertex -0.727589473822519 -0.808037924839683 0.349296711599462
         vertex -0.727589473822546 -0.823384283666938 0.337306822028514
         vertex -0.727589473822031 -0.823384283666938 0.568759867443775
      endloop
   endfacet
   facet normal -1 -4.65763920267111E-15 2.22665261157551E-12
      outer loop
         vertex -0.727589473822031 -0.823384283666938 0.568759867443775
         vertex -0.727589473822546 -0.823384283666938 0.337306822028514
         vertex -0.727589473822009 -0.840249962896776 0.578497271887188
      endloop
   endfacet
   facet normal -1 4.29615429065088E-15 2.2272787218093E-12
      outer loop
         vertex -0.727589473822546 -0.823384283666938 0.337306822028514
         vertex -0.727589473822568 -0.840249962896776 0.327569417585101
         vertex -0.727589473822009 -0.840249962896776 0.578497271887188
      endloop
   endfacet
   facet normal -1 2.19390774460557E-15 2.2272787218093E-12
      outer loop
         vertex -0.727589473822009 -0.840249962896776 0.578497271887188
         vertex -0.727589473822568 -0.840249962896776 0.327569417585101
         vertex -0.727589473821993 -0.858306691267415 0.585792663701708
      endloop
   endfacet
   facet normal -1 -2.07334809782131E-15 2.22698032621249E-12
      outer loop
         vertex -0.727589473822568 -0.840249962896776 0.327569417585101
         vertex -0.727589473822584 -0.858306691267415 0.320274025770581
         vertex -0.727589473821993 -0.858306691267415 0.585792663701708
      endloop
   endfacet
   facet normal -1 -2.90861818365752E-15 2.22698032621249E-12
      outer loop
         vertex -0.727589473821993 -0.858306691267415 0.585792663701708
         vertex -0.727589473822584 -0.858306691267415 0.320274025770581
         vertex -0.727589473821982 -0.877203015100344 0.59050404638405
      endloop
   endfacet
   facet normal -1 2.80893430065009E-15 2.22738013642984E-12
      outer loop
         vertex -0.727589473822584 -0.858306691267415 0.320274025770581
         vertex -0.727589473822594 -0.877203015100344 0.315562643088239
         vertex -0.727589473821982 -0.877203015100344 0.59050404638405
      endloop
   endfacet
   facet normal -1 -9.13840103187216E-16 2.22738013642984E-12
      outer loop
         vertex -0.727589473821982 -0.877203015100344 0.59050404638405
         vertex -0.727589473822594 -0.877203015100344 0.315562643088239
         vertex -0.727589473821977 -0.896571138946405 0.592539718229421
      endloop
   endfacet
   facet normal -1 9.0050538218023E-16 2.2275070078254E-12
      outer loop
         vertex -0.727589473822594 -0.877203015100344 0.315562643088239
         vertex -0.727589473822599 -0.896571138946405 0.313526971242868
         vertex -0.727589473821977 -0.896571138946405 0.592539718229421
      endloop
   endfacet
   facet normal -1 2.07381409847418E-15 2.2275070078254E-12
      outer loop
         vertex -0.727589473821977 -0.896571138946405 0.592539718229421
         vertex -0.727589473822599 -0.896571138946405 0.313526971242868
         vertex -0.727589473821979 -0.916034084305849 0.591860057200894
      endloop
   endfacet
   facet normal -1 -2.08396697610212E-15 2.22721626745009E-12
      outer loop
         vertex -0.727589473822599 -0.896571138946405 0.313526971242868
         vertex -0.727589473822597 -0.916034084305849 0.314206632271395
         vertex -0.727589473821979 -0.916034084305849 0.591860057200894
      endloop
   endfacet
   facet normal -1 9.17380223507849E-16 2.22721626745009E-12
      outer loop
         vertex -0.727589473821979 -0.916034084305849 0.591860057200894
         vertex -0.727589473822597 -0.916034084305849 0.314206632271395
         vertex -0.727589473821987 -0.935213027086026 0.588478292127285
      endloop
   endfacet
   facet normal -1 -9.40285207848969E-16 2.22708636682882E-12
      outer loop
         vertex -0.727589473822597 -0.916034084305849 0.314206632271395
         vertex -0.72758947382259 -0.935213027086026 0.317588397345004
         vertex -0.727589473821987 -0.935213027086026 0.588478292127285
      endloop
   endfacet
   facet normal -1 1.67308981191117E-15 2.22708636682882E-12
      outer loop
         vertex -0.727589473821987 -0.935213027086026 0.588478292127285
         vertex -0.72758947382259 -0.935213027086026 0.317588397345004
         vertex -0.727589473822 -0.953734670981445 0.582460245219051
      endloop
   endfacet
   facet normal -1 -1.75088455884718E-15 2.2268469392169E-12
      outer loop
         vertex -0.72758947382259 -0.935213027086026 0.317588397345004
         vertex -0.727589473822576 -0.953734670981445 0.323606444253238
         vertex -0.727589473822 -0.953734670981445 0.582460245219051
      endloop
   endfacet
   facet normal -1 -1.49745904699688E-15 2.2268469392169E-12
      outer loop
         vertex -0.727589473822 -0.953734670981445 0.582460245219051
         vertex -0.727589473822576 -0.953734670981445 0.323606444253238
         vertex -0.727589473822019 -0.971238513261738 0.573923050913835
      endloop
   endfacet
   facet normal -1 1.60320914975009E-15 2.22706375905879E-12
      outer loop
         vertex -0.727589473822576 -0.953734670981445 0.323606444253238
         vertex -0.727589473822557 -0.971238513261738 0.332143638558454
         vertex -0.727589473822019 -0.971238513261738 0.573923050913835
      endloop
   endfacet
   facet normal -1 -3.11247361804451E-15 2.22706375905879E-12
      outer loop
         vertex -0.727589473822019 -0.971238513261738 0.573923050913835
         vertex -0.727589473822557 -0.971238513261738 0.332143638558454
         vertex -0.727589473822043 -0.987383861547246 0.563032875987873
      endloop
   endfacet
   facet normal -1 3.42061476886325E-15 2.22752059710183E-12
      outer loop
         vertex -0.727589473822557 -0.971238513261738 0.332143638558454
         vertex -0.727589473822533 -0.987383861547246 0.343033813484416
         vertex -0.727589473822043 -0.987383861547246 0.563032875987873
      endloop
   endfacet
   facet normal -1 4.18705610098601E-15 2.22752059710183E-12
      outer loop
         vertex -0.727589473822043 -0.987383861547246 0.563032875987873
         vertex -0.727589473822533 -0.987383861547246 0.343033813484416
         vertex -0.727589473822072 -1.00185646499865 0.550001685308708
      endloop
   endfacet
   facet normal -1 -4.74973796304909E-15 2.22689567558394E-12
      outer loop
         vertex -0.727589473822533 -0.987383861547246 0.343033813484416
         vertex -0.727589473822504 -1.00185646499865 0.356065004163581
         vertex -0.727589473822072 -1.00185646499865 0.550001685308708
      endloop
   endfacet
   facet normal -1 -2.11122318563958E-15 2.22689567558394E-12
      outer loop
         vertex -0.727589473822072 -1.00185646499865 0.550001685308708
         vertex -0.727589473822504 -1.00185646499865 0.356065004163581
         vertex -0.727589473822105 -1.01437463085212 0.535083116180151
      endloop
   endfacet
   facet normal -1 2.49509298182973E-15 2.22721778058833E-12
      outer loop
         vertex -0.727589473822504 -1.00185646499865 0.356065004163581
         vertex -0.727589473822471 -1.01437463085212 0.370983573292138
         vertex -0.727589473822105 -1.01437463085212 0.535083116180151
      endloop
   endfacet
   facet normal -1 -3.4301383196503E-15 2.22721778058833E-12
      outer loop
         vertex -0.727589473822105 -1.01437463085212 0.535083116180151
         vertex -0.727589473822471 -1.01437463085212 0.370983573292138
         vertex -0.727589473822142 -1.02469470724851 0.518567541580668
      endloop
   endfacet
   facet normal -1 4.2945832664223E-15 2.227757945742E-12
      outer loop
         vertex -0.727589473822471 -1.01437463085212 0.370983573292138
         vertex -0.727589473822434 -1.02469470724851 0.387499147891621
         vertex -0.727589473822142 -1.02469470724851 0.518567541580668
      endloop
   endfacet
   facet normal -1 8.15431932095774E-17 2.227757945742E-12
      outer loop
         vertex -0.727589473822142 -1.02469470724851 0.518567541580668
         vertex -0.727589473822434 -1.02469470724851 0.387499147891621
         vertex -0.727589473822182 -1.03261582563968 0.500776418383651
      endloop
   endfacet
   facet normal -1 -1.11929695052432E-16 2.22774441679972E-12
      outer loop
         vertex -0.727589473822434 -1.02469470724851 0.387499147891621
         vertex -0.727589473822395 -1.03261582563968 0.405290271088638
         vertex -0.727589473822182 -1.03261582563968 0.500776418383651
      endloop
   endfacet
   facet normal -1 7.47883683270271E-15 2.22774441679972E-12
      outer loop
         vertex -0.727589473822182 -1.03261582563968 0.500776418383651
         vertex -0.727589473822395 -1.03261582563968 0.405290271088638
         vertex -0.727589473822224 -1.03798381046628 0.482056030565026
      endloop
   endfacet
   facet normal -1 -1.23028812635585E-14 2.22636114431849E-12
      outer loop
         vertex -0.727589473822395 -1.03261582563968 0.405290271088638
         vertex -0.727589473822353 -1.03798381046628 0.424010658907263
         vertex -0.727589473822224 -1.03798381046628 0.482056030565026
      endloop
   endfacet
   facet normal -1 1.09320587706034E-14 2.22636114431849E-12
      outer loop
         vertex -0.727589473822224 -1.03798381046628 0.482056030565026
         vertex -0.727589473822353 -1.03798381046628 0.424010658907263
         vertex -0.727589473822267 -1.04069418000967 0.462770749179557
      endloop
   endfacet
   facet normal -1 -3.2583396222787E-14 2.22331824728053E-12
      outer loop
         vertex -0.727589473822353 -1.03798381046628 0.424010658907263
         vertex -0.72758947382231 -1.04069418000967 0.443295940292732
         vertex -0.727589473822267 -1.04069418000967 0.462770749179557
      endloop
   endfacet
   facet normal 1.55353825898702E-13 0.997564050259824 0.0697564737441299
      outer loop
         vertex -0.727589473822245 -0.76320989404469 0.472460713967323
         vertex -0.588979473822288 -0.761851400049904 0.453033344735836
         vertex -0.727589473822288 -0.761851400049904 0.453033344736144
      endloop
   endfacet
   facet normal -1.55354230506448E-13 0.997564050259824 -0.0697564737441299
      outer loop
         vertex -0.727589473822288 -0.761851400049904 0.453033344736144
         vertex -0.588979473822288 -0.761851400049904 0.453033344735836
         vertex -0.588979473822332 -0.76320989404469 0.433605975504658
      endloop
   endfacet
   facet normal -1.55353825898702E-13 0.997564050259824 -0.0697564737441299
      outer loop
         vertex -0.727589473822288 -0.761851400049904 0.453033344736144
         vertex -0.588979473822332 -0.76320989404469 0.433605975504658
         vertex -0.727589473822332 -0.76320989404469 0.433605975504966
      endloop
   endfacet
   facet normal -4.6303889813532E-13 0.978147600733806 -0.207911690817758
      outer loop
         vertex -0.727589473822332 -0.76320989404469 0.433605975504966
         vertex -0.588979473822332 -0.76320989404469 0.433605975504658
         vertex -0.588979473822374 -0.767258934488703 0.41455673791726
      endloop
   endfacet
   facet normal -4.62956258786859E-13 0.978147600733806 -0.207911690817758
      outer loop
         vertex -0.727589473822332 -0.76320989404469 0.433605975504966
         vertex -0.588979473822374 -0.767258934488703 0.41455673791726
         vertex -0.727589473822374 -0.767258934488703 0.414556737917568
      endloop
   endfacet
   facet normal -7.61574066557959E-13 0.939692620785909 -0.342020143325666
      outer loop
         vertex -0.727589473822374 -0.767258934488703 0.414556737917568
         vertex -0.588979473822374 -0.767258934488703 0.41455673791726
         vertex -0.588979473822415 -0.773919711415415 0.396256403715093
      endloop
   endfacet
   facet normal -7.61714967974701E-13 0.939692620785909 -0.342020143325667
      outer loop
         vertex -0.727589473822374 -0.767258934488703 0.414556737917568
         vertex -0.588979473822415 -0.773919711415415 0.396256403715093
         vertex -0.727589473822415 -0.773919711415415 0.396256403715402
      endloop
   endfacet
   facet normal -1.04555734352038E-12 0.882947592858927 -0.46947156278589
      outer loop
         vertex -0.727589473822415 -0.773919711415415 0.396256403715402
         vertex -0.588979473822415 -0.773919711415415 0.396256403715093
         vertex -0.588979473822453 -0.78306258037847 0.379061168087083
      endloop
   endfacet
   facet normal -1.04555256059296E-12 0.882947592858927 -0.46947156278589
      outer loop
         vertex -0.727589473822415 -0.773919711415415 0.396256403715402
         vertex -0.588979473822453 -0.78306258037847 0.379061168087083
         vertex -0.727589473822453 -0.78306258037847 0.379061168087391
      endloop
   endfacet
   facet normal -1.30905306234204E-12 0.809016994374946 -0.587785252292475
      outer loop
         vertex -0.727589473822453 -0.78306258037847 0.379061168087391
         vertex -0.588979473822453 -0.78306258037847 0.379061168087083
         vertex -0.588979473822488 -0.794509585833361 0.363305716735436
      endloop
   endfacet
   facet normal -1.3090618890826E-12 0.809016994374946 -0.587785252292475
      outer loop
         vertex -0.727589473822453 -0.78306258037847 0.379061168087391
         vertex -0.588979473822488 -0.794509585833361 0.363305716735436
         vertex -0.727589473822488 -0.794509585833361 0.363305716735745
      endloop
   endfacet
   facet normal -1.547069552331E-12 0.719339800338652 -0.694658370458996
      outer loop
         vertex -0.727589473822488 -0.794509585833361 0.363305716735745
         vertex -0.588979473822488 -0.794509585833361 0.363305716735436
         vertex -0.588979473822519 -0.808037924839683 0.349296711599153
      endloop
   endfacet
   facet normal -1.5470667518342E-12 0.719339800338652 -0.694658370458996
      outer loop
         vertex -0.727589473822488 -0.794509585833361 0.363305716735745
         vertex -0.588979473822519 -0.808037924839683 0.349296711599153
         vertex -0.727589473822519 -0.808037924839683 0.349296711599462
      endloop
   endfacet
   facet normal -1.75497409324938E-12 0.615661475325657 -0.788010753606723
      outer loop
         vertex -0.727589473822519 -0.808037924839683 0.349296711599462
         vertex -0.588979473822519 -0.808037924839683 0.349296711599153
         vertex -0.588979473822546 -0.823384283666938 0.337306822028205
      endloop
   endfacet
   facet normal -1.7549683121123E-12 0.615661475325657 -0.788010753606723
      outer loop
         vertex -0.727589473822519 -0.808037924839683 0.349296711599462
         vertex -0.588979473822546 -0.823384283666938 0.337306822028205
         vertex -0.727589473822546 -0.823384283666938 0.337306822028514
      endloop
   endfacet
   facet normal -1.92872005969609E-12 0.500000000000001 -0.866025403784438
      outer loop
         vertex -0.727589473822546 -0.823384283666938 0.337306822028514
         vertex -0.588979473822546 -0.823384283666938 0.337306822028205
         vertex -0.588979473822568 -0.840249962896776 0.327569417584792
      endloop
   endfacet
   facet normal -1.92907143472334E-12 0.499999999999999 -0.866025403784439
      outer loop
         vertex -0.727589473822546 -0.823384283666938 0.337306822028514
         vertex -0.588979473822568 -0.840249962896776 0.327569417584792
         vertex -0.727589473822568 -0.840249962896776 0.327569417585101
      endloop
   endfacet
   facet normal -2.06529700679424E-12 0.37460659341591 -0.927183854566788
      outer loop
         vertex -0.727589473822568 -0.840249962896776 0.327569417585101
         vertex -0.588979473822568 -0.840249962896776 0.327569417584792
         vertex -0.588979473822584 -0.858306691267415 0.320274025770272
      endloop
   endfacet
   facet normal -2.06455637811055E-12 0.374606593415914 -0.927183854566786
      outer loop
         vertex -0.727589473822568 -0.840249962896776 0.327569417585101
         vertex -0.588979473822584 -0.858306691267415 0.320274025770272
         vertex -0.727589473822584 -0.858306691267415 0.320274025770581
      endloop
   endfacet
   facet normal -2.16055129045484E-12 0.24192189559967 -0.970295726275996
      outer loop
         vertex -0.727589473822584 -0.858306691267415 0.320274025770581
         vertex -0.588979473822584 -0.858306691267415 0.320274025770272
         vertex -0.588979473822595 -0.877203015100344 0.31556264308793
      endloop
   endfacet
   facet normal -2.16094116811827E-12 0.241921895599668 -0.970295726275996
      outer loop
         vertex -0.727589473822584 -0.858306691267415 0.320274025770581
         vertex -0.588979473822595 -0.877203015100344 0.31556264308793
         vertex -0.727589473822594 -0.877203015100344 0.315562643088239
      endloop
   endfacet
   facet normal -2.21489383685702E-12 0.104528463267652 -0.994521895368274
      outer loop
         vertex -0.727589473822594 -0.877203015100344 0.315562643088239
         vertex -0.588979473822595 -0.877203015100344 0.31556264308793
         vertex -0.588979473822599 -0.896571138946405 0.313526971242559
      endloop
   endfacet
   facet normal -2.21489466045173E-12 0.104528463267652 -0.994521895368274
      outer loop
         vertex -0.727589473822594 -0.877203015100344 0.315562643088239
         vertex -0.588979473822599 -0.896571138946405 0.313526971242559
         vertex -0.727589473822599 -0.896571138946405 0.313526971242868
      endloop
   endfacet
   facet normal -2.22573740576758E-12 -0.0348994967025012 -0.999390827019096
      outer loop
         vertex -0.727589473822599 -0.896571138946405 0.313526971242868
         vertex -0.588979473822599 -0.896571138946405 0.313526971242559
         vertex -0.588979473822598 -0.916034084305849 0.314206632271086
      endloop
   endfacet
   facet normal -2.22533680625427E-12 -0.0348994967024983 -0.999390827019096
      outer loop
         vertex -0.727589473822599 -0.896571138946405 0.313526971242868
         vertex -0.588979473822598 -0.916034084305849 0.314206632271086
         vertex -0.727589473822597 -0.916034084305849 0.314206632271395
      endloop
   endfacet
   facet normal -2.19286512761084E-12 -0.173648177666929 -0.984807753012208
      outer loop
         vertex -0.727589473822597 -0.916034084305849 0.314206632271395
         vertex -0.588979473822598 -0.916034084305849 0.314206632271086
         vertex -0.58897947382259 -0.935213027086026 0.317588397344696
      endloop
   endfacet
   facet normal -2.19325853936941E-12 -0.173648177666932 -0.984807753012208
      outer loop
         vertex -0.727589473822597 -0.916034084305849 0.314206632271395
         vertex -0.58897947382259 -0.935213027086026 0.317588397344696
         vertex -0.72758947382259 -0.935213027086026 0.317588397345004
      endloop
   endfacet
   facet normal -2.11809234794656E-12 -0.309016994374947 -0.951056516295154
      outer loop
         vertex -0.72758947382259 -0.935213027086026 0.317588397345004
         vertex -0.58897947382259 -0.935213027086026 0.317588397344696
         vertex -0.588979473822577 -0.953734670981445 0.323606444252929
      endloop
   endfacet
   facet normal -2.11809567390398E-12 -0.309016994374947 -0.951056516295154
      outer loop
         vertex -0.72758947382259 -0.935213027086026 0.317588397345004
         vertex -0.588979473822577 -0.953734670981445 0.323606444252929
         vertex -0.727589473822576 -0.953734670981445 0.323606444253238
      endloop
   endfacet
   facet normal -2.00169890982102E-12 -0.43837114678908 -0.898794046299166
      outer loop
         vertex -0.727589473822576 -0.953734670981445 0.323606444253238
         vertex -0.588979473822577 -0.953734670981445 0.323606444252929
         vertex -0.588979473822558 -0.971238513261738 0.332143638558145
      endloop
   endfacet
   facet normal -2.00169891530734E-12 -0.43837114678908 -0.898794046299166
      outer loop
         vertex -0.727589473822576 -0.953734670981445 0.323606444253238
         vertex -0.588979473822558 -0.971238513261738 0.332143638558145
         vertex -0.727589473822557 -0.971238513261738 0.332143638558454
      endloop
   endfacet
   facet normal -1.84634467931459E-12 -0.559192903470744 -0.829037572555044
      outer loop
         vertex -0.727589473822557 -0.971238513261738 0.332143638558454
         vertex -0.588979473822558 -0.971238513261738 0.332143638558145
         vertex -0.588979473822533 -0.987383861547246 0.343033813484107
      endloop
   endfacet
   facet normal -1.84634257912658E-12 -0.559192903470744 -0.829037572555044
      outer loop
         vertex -0.727589473822557 -0.971238513261738 0.332143638558454
         vertex -0.588979473822533 -0.987383861547246 0.343033813484107
         vertex -0.727589473822533 -0.987383861547246 0.343033813484416
      endloop
   endfacet
   facet normal -1.65505344981123E-12 -0.669130606358859 -0.743144825477394
      outer loop
         vertex -0.727589473822533 -0.987383861547246 0.343033813484416
         vertex -0.588979473822533 -0.987383861547246 0.343033813484107
         vertex -0.588979473822504 -1.00185646499865 0.356065004163272
      endloop
   endfacet
   facet normal -1.65535027881023E-12 -0.66913060635886 -0.743144825477392
      outer loop
         vertex -0.727589473822533 -0.987383861547246 0.343033813484416
         vertex -0.588979473822504 -1.00185646499865 0.356065004163272
         vertex -0.727589473822504 -1.00185646499865 0.356065004163581
      endloop
   endfacet
   facet normal -1.43180591395253E-12 -0.76604444311898 -0.642787609686537
      outer loop
         vertex -0.727589473822504 -1.00185646499865 0.356065004163581
         vertex -0.588979473822504 -1.00185646499865 0.356065004163272
         vertex -0.588979473822471 -1.01437463085212 0.370983573291829
      endloop
   endfacet
   facet normal -1.43154357139471E-12 -0.766044443118979 -0.642787609686538
      outer loop
         vertex -0.727589473822504 -1.00185646499865 0.356065004163581
         vertex -0.588979473822471 -1.01437463085212 0.370983573291829
         vertex -0.727589473822471 -1.01437463085212 0.370983573292138
      endloop
   endfacet
   facet normal -1.1801800622472E-12 -0.848048096156425 -0.529919264233207
      outer loop
         vertex -0.727589473822471 -1.01437463085212 0.370983573292138
         vertex -0.588979473822471 -1.01437463085212 0.370983573291829
         vertex -0.588979473822434 -1.02469470724851 0.387499147891312
      endloop
   endfacet
   facet normal -1.1801840080795E-12 -0.848048096156425 -0.529919264233207
      outer loop
         vertex -0.727589473822471 -1.01437463085212 0.370983573292138
         vertex -0.588979473822434 -1.02469470724851 0.387499147891312
         vertex -0.727589473822434 -1.02469470724851 0.387499147891621
      endloop
   endfacet
   facet normal -9.05840774514972E-13 -0.913545457642603 -0.406736643075796
      outer loop
         vertex -0.727589473822434 -1.02469470724851 0.387499147891621
         vertex -0.588979473822434 -1.02469470724851 0.387499147891312
         vertex -0.588979473822395 -1.03261582563968 0.40529027108833
      endloop
   endfacet
   facet normal -9.05840302215302E-13 -0.913545457642603 -0.406736643075796
      outer loop
         vertex -0.727589473822434 -1.02469470724851 0.387499147891621
         vertex -0.588979473822395 -1.03261582563968 0.40529027108833
         vertex -0.727589473822395 -1.03261582563968 0.405290271088638
      endloop
   endfacet
   facet normal -6.13870326485445E-13 -0.961261695938318 -0.275637355817003
      outer loop
         vertex -0.727589473822395 -1.03261582563968 0.405290271088638
         vertex -0.588979473822395 -1.03261582563968 0.40529027108833
         vertex -0.588979473822353 -1.03798381046628 0.424010658906954
      endloop
   endfacet
   facet normal -6.13869395719949E-13 -0.961261695938318 -0.275637355817003
      outer loop
         vertex -0.727589473822395 -1.03261582563968 0.405290271088638
         vertex -0.588979473822353 -1.03798381046628 0.424010658906954
         vertex -0.727589473822353 -1.03798381046628 0.424010658907263
      endloop
   endfacet
   facet normal -3.09951590818012E-13 -0.99026806874157 -0.139173100960071
      outer loop
         vertex -0.727589473822353 -1.03798381046628 0.424010658907263
         vertex -0.588979473822353 -1.03798381046628 0.424010658906954
         vertex -0.58897947382231 -1.04069418000967 0.443295940292423
      endloop
   endfacet
   facet normal -3.09949546615032E-13 -0.99026806874157 -0.139173100960071
      outer loop
         vertex -0.727589473822353 -1.03798381046628 0.424010658907263
         vertex -0.58897947382231 -1.04069418000967 0.443295940292423
         vertex -0.72758947382231 -1.04069418000967 0.443295940292732
      endloop
   endfacet
   facet normal 0 -1 0
      outer loop
         vertex -0.72758947382231 -1.04069418000967 0.443295940292732
         vertex -0.58897947382231 -1.04069418000967 0.443295940292423
         vertex -0.588979473822267 -1.04069418000967 0.462770749179249
      endloop
   endfacet
   facet normal 0 -1 0
      outer loop
         vertex -0.72758947382231 -1.04069418000967 0.443295940292732
         vertex -0.588979473822267 -1.04069418000967 0.462770749179249
         vertex -0.727589473822267 -1.04069418000967 0.462770749179557
      endloop
   endfacet
   facet normal 3.09951590818014E-13 -0.990268068741569 0.139173100960072
      outer loop
         vertex -0.727589473822267 -1.04069418000967 0.462770749179557
         vertex -0.588979473822267 -1.04069418000967 0.462770749179249
         vertex -0.588979473822224 -1.03798381046628 0.482056030564717
      endloop
   endfacet
   facet normal 3.10007283102432E-13 -0.990268068741569 0.139173100960071
      outer loop
         vertex -0.727589473822267 -1.04069418000967 0.462770749179557
         vertex -0.588979473822224 -1.03798381046628 0.482056030564717
         vertex -0.727589473822224 -1.03798381046628 0.482056030565026
      endloop
   endfacet
   facet normal 6.13980714963499E-13 -0.961261695938318 0.275637355817001
      outer loop
         vertex -0.727589473822224 -1.03798381046628 0.482056030565026
         vertex -0.588979473822224 -1.03798381046628 0.482056030564717
         vertex -0.588979473822182 -1.03261582563968 0.500776418383342
      endloop
   endfacet
   facet normal 6.13758943309271E-13 -0.961261695938318 0.275637355817002
      outer loop
         vertex -0.727589473822224 -1.03798381046628 0.482056030565026
         vertex -0.588979473822182 -1.03261582563968 0.500776418383342
         vertex -0.727589473822182 -1.03261582563968 0.500776418383651
      endloop
   endfacet
   facet normal 9.05677882809437E-13 -0.913545457642601 0.406736643075799
      outer loop
         vertex -0.727589473822182 -1.03261582563968 0.500776418383651
         vertex -0.588979473822182 -1.03261582563968 0.500776418383342
         vertex -0.588979473822142 -1.02469470724851 0.51856754158036
      endloop
   endfacet
   facet normal 9.06011001395441E-13 -0.913545457642602 0.406736643075797
      outer loop
         vertex -0.727589473822182 -1.03261582563968 0.500776418383651
         vertex -0.588979473822142 -1.02469470724851 0.51856754158036
         vertex -0.727589473822142 -1.02469470724851 0.518567541580668
      endloop
   endfacet
   facet normal 1.18039228667846E-12 -0.848048096156427 0.529919264233204
      outer loop
         vertex -0.727589473822142 -1.02469470724851 0.518567541580668
         vertex -0.588979473822142 -1.02469470724851 0.51856754158036
         vertex -0.588979473822106 -1.01437463085212 0.535083116179843
      endloop
   endfacet
   facet normal 1.1803948717726E-12 -0.848048096156427 0.529919264233204
      outer loop
         vertex -0.727589473822142 -1.02469470724851 0.518567541580668
         vertex -0.588979473822106 -1.01437463085212 0.535083116179843
         vertex -0.727589473822105 -1.01437463085212 0.535083116180151
      endloop
   endfacet
   facet normal 1.43180591395253E-12 -0.76604444311898 0.642787609686537
      outer loop
         vertex -0.727589473822105 -1.01437463085212 0.535083116180151
         vertex -0.588979473822106 -1.01437463085212 0.535083116179843
         vertex -0.588979473822072 -1.00185646499865 0.5500016853084
      endloop
   endfacet
   facet normal 1.43128250206039E-12 -0.766044443118978 0.64278760968654
      outer loop
         vertex -0.727589473822105 -1.01437463085212 0.535083116180151
         vertex -0.588979473822072 -1.00185646499865 0.5500016853084
         vertex -0.727589473822072 -1.00185646499865 0.550001685308708
      endloop
   endfacet
   facet normal 1.65475583185587E-12 -0.669130606358857 0.743144825477395
      outer loop
         vertex -0.727589473822072 -1.00185646499865 0.550001685308708
         vertex -0.588979473822072 -1.00185646499865 0.5500016853084
         vertex -0.588979473822043 -0.987383861547246 0.563032875987564
      endloop
   endfacet
   facet normal 1.65475785224388E-12 -0.669130606358857 0.743144825477395
      outer loop
         vertex -0.727589473822072 -1.00185646499865 0.550001685308708
         vertex -0.588979473822043 -0.987383861547246 0.563032875987564
         vertex -0.727589473822043 -0.987383861547246 0.563032875987873
      endloop
   endfacet
   facet normal 1.84601266264864E-12 -0.559192903470748 0.829037572555041
      outer loop
         vertex -0.727589473822043 -0.987383861547246 0.563032875987873
         vertex -0.588979473822043 -0.987383861547246 0.563032875987564
         vertex -0.588979473822019 -0.971238513261738 0.573923050913527
      endloop
   endfacet
   facet normal 1.84668397748684E-12 -0.559192903470752 0.829037572555038
      outer loop
         vertex -0.727589473822043 -0.987383861547246 0.563032875987873
         vertex -0.588979473822019 -0.971238513261738 0.573923050913527
         vertex -0.727589473822019 -0.971238513261738 0.573923050913835
      endloop
   endfacet
   facet normal 2.0020588628708E-12 -0.43837114678908 0.898794046299166
      outer loop
         vertex -0.727589473822019 -0.971238513261738 0.573923050913835
         vertex -0.588979473822019 -0.971238513261738 0.573923050913527
         vertex -0.588979473822 -0.953734670981445 0.582460245218743
      endloop
   endfacet
   facet normal 2.00133743469058E-12 -0.438371146789075 0.898794046299168
      outer loop
         vertex -0.727589473822019 -0.971238513261738 0.573923050913835
         vertex -0.588979473822 -0.953734670981445 0.582460245218743
         vertex -0.727589473822 -0.953734670981445 0.582460245219051
      endloop
   endfacet
   facet normal 2.11771146458962E-12 -0.309016994374942 0.951056516295155
      outer loop
         vertex -0.727589473822 -0.953734670981445 0.582460245219051
         vertex -0.588979473822 -0.953734670981445 0.582460245218743
         vertex -0.588979473821987 -0.935213027086026 0.588478292126976
      endloop
   endfacet
   facet normal 2.1184722162131E-12 -0.309016994374947 0.951056516295154
      outer loop
         vertex -0.727589473822 -0.953734670981445 0.582460245219051
         vertex -0.588979473821987 -0.935213027086026 0.588478292126976
         vertex -0.727589473821987 -0.935213027086026 0.588478292127285
      endloop
   endfacet
   facet normal 2.19365392801645E-12 -0.173648177666933 0.984807753012208
      outer loop
         vertex -0.727589473821987 -0.935213027086026 0.588478292127285
         vertex -0.588979473821987 -0.935213027086026 0.588478292126976
         vertex -0.588979473821979 -0.916034084305849 0.591860057200585
      endloop
   endfacet
   facet normal 2.19365516393503E-12 -0.173648177666933 0.984807753012208
      outer loop
         vertex -0.727589473821987 -0.935213027086026 0.588478292127285
         vertex -0.588979473821979 -0.916034084305849 0.591860057200585
         vertex -0.727589473821979 -0.916034084305849 0.591860057200894
      endloop
   endfacet
   facet normal 2.22613764626493E-12 -0.0348994967025038 0.999390827019096
      outer loop
         vertex -0.727589473821979 -0.916034084305849 0.591860057200894
         vertex -0.588979473821979 -0.916034084305849 0.591860057200585
         vertex -0.588979473821978 -0.896571138946405 0.592539718229113
      endloop
   endfacet
   facet normal 2.22533743382477E-12 -0.0348994967024981 0.999390827019096
      outer loop
         vertex -0.727589473821979 -0.916034084305849 0.591860057200894
         vertex -0.588979473821978 -0.896571138946405 0.592539718229113
         vertex -0.727589473821977 -0.896571138946405 0.592539718229421
      endloop
   endfacet
   facet normal 2.21449554629114E-12 0.104528463267657 0.994521895368273
      outer loop
         vertex -0.727589473821977 -0.896571138946405 0.592539718229421
         vertex -0.588979473821978 -0.896571138946405 0.592539718229113
         vertex -0.588979473821982 -0.877203015100344 0.590504046383742
      endloop
   endfacet
   facet normal 2.21529128501734E-12 0.104528463267652 0.994521895368274
      outer loop
         vertex -0.727589473821977 -0.896571138946405 0.592539718229421
         vertex -0.588979473821982 -0.877203015100344 0.590504046383742
         vertex -0.727589473821982 -0.877203015100344 0.59050404638405
      endloop
   endfacet
   facet normal 2.16132846717803E-12 0.241921895599668 0.970295726275996
      outer loop
         vertex -0.727589473821982 -0.877203015100344 0.59050404638405
         vertex -0.588979473821982 -0.877203015100344 0.590504046383742
         vertex -0.588979473821993 -0.858306691267415 0.585792663701399
      endloop
   endfacet
   facet normal 2.16132775155564E-12 0.241921895599668 0.970295726275996
      outer loop
         vertex -0.727589473821982 -0.877203015100344 0.59050404638405
         vertex -0.588979473821993 -0.858306691267415 0.585792663701399
         vertex -0.727589473821993 -0.858306691267415 0.585792663701708
      endloop
   endfacet
   facet normal 2.06529700679424E-12 0.37460659341591 0.927183854566788
      outer loop
         vertex -0.727589473821993 -0.858306691267415 0.585792663701708
         vertex -0.588979473821993 -0.858306691267415 0.585792663701399
         vertex -0.588979473822009 -0.840249962896776 0.57849727188688
      endloop
   endfacet
   facet normal 2.06455637811055E-12 0.374606593415914 0.927183854566786
      outer loop
         vertex -0.727589473821993 -0.858306691267415 0.585792663701708
         vertex -0.588979473822009 -0.840249962896776 0.57849727188688
         vertex -0.727589473822009 -0.840249962896776 0.578497271887188
      endloop
   endfacet
   facet normal 1.92837322997847E-12 0.500000000000001 0.866025403784438
      outer loop
         vertex -0.727589473822009 -0.840249962896776 0.578497271887188
         vertex -0.588979473822009 -0.840249962896776 0.57849727188688
         vertex -0.588979473822031 -0.823384283666938 0.568759867443467
      endloop
   endfacet
   facet normal 1.92836855574632E-12 0.500000000000001 0.866025403784438
      outer loop
         vertex -0.727589473822009 -0.840249962896776 0.578497271887188
         vertex -0.588979473822031 -0.823384283666938 0.568759867443467
         vertex -0.727589473822031 -0.823384283666938 0.568759867443775
      endloop
   endfacet
   facet normal 1.75465850718693E-12 0.615661475325656 0.788010753606724
      outer loop
         vertex -0.727589473822031 -0.823384283666938 0.568759867443775
         vertex -0.588979473822031 -0.823384283666938 0.568759867443467
         vertex -0.588979473822057 -0.808037924839683 0.556769977872518
      endloop
   endfacet
   facet normal 1.75528962821608E-12 0.615661475325653 0.788010753606726
      outer loop
         vertex -0.727589473822031 -0.823384283666938 0.568759867443775
         vertex -0.588979473822057 -0.808037924839683 0.556769977872518
         vertex -0.727589473822057 -0.808037924839683 0.556769977872827
      endloop
   endfacet
   facet normal 1.54734775221453E-12 0.719339800338652 0.694658370458996
      outer loop
         vertex -0.727589473822057 -0.808037924839683 0.556769977872827
         vertex -0.588979473822057 -0.808037924839683 0.556769977872518
         vertex -0.588979473822088 -0.794509585833361 0.542760972736235
      endloop
   endfacet
   facet normal 1.54734790342501E-12 0.719339800338652 0.694658370458996
      outer loop
         vertex -0.727589473822057 -0.808037924839683 0.556769977872827
         vertex -0.588979473822088 -0.794509585833361 0.542760972736235
         vertex -0.727589473822088 -0.794509585833361 0.542760972736544
      endloop
   endfacet
   facet normal 1.30928846120238E-12 0.809016994374946 0.587785252292475
      outer loop
         vertex -0.727589473822088 -0.794509585833361 0.542760972736544
         vertex -0.588979473822088 -0.794509585833361 0.542760972736235
         vertex -0.588979473822124 -0.78306258037847 0.527005521384589
      endloop
   endfacet
   facet normal 1.3092928350322E-12 0.809016994374946 0.587785252292475
      outer loop
         vertex -0.727589473822088 -0.794509585833361 0.542760972736544
         vertex -0.588979473822124 -0.78306258037847 0.527005521384589
         vertex -0.727589473822123 -0.78306258037847 0.527005521384898
      endloop
   endfacet
   facet normal 1.04574535958647E-12 0.882947592858927 0.46947156278589
      outer loop
         vertex -0.727589473822123 -0.78306258037847 0.527005521384898
         vertex -0.588979473822124 -0.78306258037847 0.527005521384589
         vertex -0.588979473822162 -0.773919711415415 0.509810285756578
      endloop
   endfacet
   facet normal 1.04574334202958E-12 0.882947592858927 0.46947156278589
      outer loop
         vertex -0.727589473822123 -0.78306258037847 0.527005521384898
         vertex -0.588979473822162 -0.773919711415415 0.509810285756578
         vertex -0.727589473822162 -0.773919711415415 0.509810285756887
      endloop
   endfacet
   facet normal 7.61848014063919E-13 0.939692620785909 0.342020143325668
      outer loop
         vertex -0.727589473822162 -0.773919711415415 0.509810285756887
         vertex -0.588979473822162 -0.773919711415415 0.509810285756578
         vertex -0.588979473822203 -0.767258934488703 0.491509951554412
      endloop
   endfacet
   facet normal 7.61714967974701E-13 0.939692620785909 0.342020143325667
      outer loop
         vertex -0.727589473822162 -0.773919711415415 0.509810285756887
         vertex -0.588979473822203 -0.767258934488703 0.491509951554412
         vertex -0.727589473822203 -0.767258934488703 0.491509951554721
      endloop
   endfacet
   facet normal 4.63038898135318E-13 0.978147600733806 0.207911690817757
      outer loop
         vertex -0.727589473822203 -0.767258934488703 0.491509951554721
         vertex -0.588979473822203 -0.767258934488703 0.491509951554412
         vertex -0.588979473822245 -0.76320989404469 0.472460713967014
      endloop
   endfacet
   facet normal 4.63036587812804E-13 0.978147600733806 0.207911690817757
      outer loop
         vertex -0.727589473822203 -0.767258934488703 0.491509951554721
         vertex -0.588979473822245 -0.76320989404469 0.472460713967014
         vertex -0.727589473822245 -0.76320989404469 0.472460713967323
      endloop
   endfacet
   facet normal 1.55354230506448E-13 0.997564050259824 0.0697564737441299
      outer loop
         vertex -0.727589473822245 -0.76320989404469 0.472460713967323
         vertex -0.588979473822245 -0.76320989404469 0.472460713967014
         vertex -0.588979473822288 -0.761851400049904 0.453033344735836
      endloop
   endfacet
endsolid
